<svg xmlns="http://www.w3.org/2000/svg" width="69.005" height="69.003" viewBox="0 0 69.005 69.003">
  <g id="music" transform="translate(0 -0.004)">
    <g id="Group_142" data-name="Group 142" transform="translate(0 0.004)">
      <path class="con-svgicon" id="Path_277" data-name="Path 277" d="M68.184.632A2.5,2.5,0,0,0,66.269.018L21.909,4.947A2.464,2.464,0,0,0,19.716,7.4V51.315a14.26,14.26,0,0,0-7.393-2.023C5.528,49.292,0,53.713,0,59.15s5.528,9.858,12.322,9.858,12.322-4.419,12.322-9.858V21.937l39.431-4.392V46.379a14.26,14.26,0,0,0-7.393-2.016c-6.795,0-12.322,4.421-12.322,9.858s5.528,9.858,12.322,9.858S69,59.66,69,54.221V2.468A2.464,2.464,0,0,0,68.184.632Z" transform="translate(0 -0.004)" fill="#111214"/>
    </g>
  </g>
</svg>
