<svg xmlns="http://www.w3.org/2000/svg" width="69.376" height="68.753" viewBox="0 0 69.376 68.753">
  <g id="headphones" transform="translate(0 -2.1)">
    <path class="con-svgicon" id="Path_278" data-name="Path 278" d="M69.376,36.788A34.692,34.692,0,0,0,10.157,12.257,34.472,34.472,0,0,0,0,36.788V53.211A16.864,16.864,0,0,0,16.839,70.051a2,2,0,0,0,2-2V38.392a2,2,0,0,0-2-2,16.783,16.783,0,0,0-12.83,5.94V36.788a30.679,30.679,0,1,1,61.358,0,1.843,1.843,0,0,0,.045.4,1.843,1.843,0,0,0-.045.4v5.539a16.783,16.783,0,0,0-12.83-5.94,2,2,0,0,0-2,2V68.848a2,2,0,0,0,2,2A16.864,16.864,0,0,0,69.376,54.013V37.59a1.843,1.843,0,0,0-.045-.4A1.844,1.844,0,0,0,69.376,36.788ZM14.82,40.545V65.878a12.823,12.823,0,0,1,0-25.333ZM54.557,66.68V41.347a12.823,12.823,0,0,1,0,25.333Z" transform="translate(0 0)" fill="#111214"/>
  </g>
</svg>
