<svg id="vinyl-record" xmlns="http://www.w3.org/2000/svg" width="68.666" height="68.666" viewBox="0 0 68.666 68.666">
  <g id="Group_141" data-name="Group 141">
    <circle class="con-svgicon" id="Ellipse_17" data-name="Ellipse 17" cx="4.49" cy="4.49" r="4.49" transform="translate(29.843 29.843)" fill="#111214"/>
    <path class="con-svgicon" id="Path_276" data-name="Path 276" d="M34.333,0A34.333,34.333,0,1,0,68.666,34.333,34.333,34.333,0,0,0,34.333,0ZM21.242,8.539A28.806,28.806,0,0,1,34.333,5.414c.277,0,.551,0,.825.011.455.012.768,1.144.7,2.513l-.35,7.045c-.068,1.369-.359,2.465-.649,2.456-.175,0-.35-.007-.526-.007a16.848,16.848,0,0,0-6.953,1.492,2.668,2.668,0,0,1-3.442-.952l-3.594-6.077A2.387,2.387,0,0,1,21.242,8.539Zm-1.4,12.923-5.309-4.644a2.309,2.309,0,0,1-.148-3.42l.071-.066a2.293,2.293,0,0,1,3.4.33l4.336,5.564c.843,1.081,1.039,2.344.485,2.872S20.87,22.364,19.838,21.462Zm2.347,12.871A12.149,12.149,0,1,1,34.333,46.482,12.149,12.149,0,0,1,22.184,34.333ZM47.367,60.156a28.8,28.8,0,0,1-13.034,3.1q-.462,0-.92-.014c-.508-.016-.859-1.153-.784-2.522l.385-7.044c.076-1.369.4-2.458.727-2.447.2.006.393.01.592.01a16.872,16.872,0,0,0,6.427-1.263,2.937,2.937,0,0,1,3.57.97l3.848,5.919A2.262,2.262,0,0,1,47.367,60.156Zm6.762-4.74a2.31,2.31,0,0,1-3.354-.378l-4.455-5.469c-.866-1.062-1.087-2.293-.54-2.8s1.791-.222,2.822.681L53.912,52.1A2.232,2.232,0,0,1,54.128,55.415Z" fill="#111214"/>
  </g>
</svg>
