<svg xmlns="http://www.w3.org/2000/svg" xmlns:xlink="http://www.w3.org/1999/xlink" width="1920" height="1083" viewBox="0 0 1920 1083">
  <defs>
    <clipPath id="clip-path">
      <rect id="Rectangle_273" data-name="Rectangle 273" width="1920" height="1083" transform="translate(0 3843)" fill="#fff" stroke="#707070" stroke-width="1"/>
    </clipPath>
  </defs>
  <g id="Mask_Group_44" data-name="Mask Group 44" transform="translate(0 -3843)" clip-path="url(#clip-path)">
    <g id="Backgound" transform="matrix(0.788, -0.616, 0.616, 0.788, -380.199, 4240.843)">
      <g id="Group_2085" data-name="Group 2085" transform="translate(66.849 510.521)">
        <g id="Group_2084" data-name="Group 2084" transform="translate(0 0)">
          <path id="Path_1910" data-name="Path 1910" d="M.128,83.323C-12.7,674.394,937.792-184.117,1290.741,37.49c123.208,77.357,244.387,265.536,115.5,385.439C1205.147,610,1017.726,281.757,1203.362,183.745" transform="translate(198.167 522.749)" fill="none" stroke="#8eb7cc" stroke-miterlimit="10" stroke-width="0.122"/>
          <path id="Path_1911" data-name="Path 1911" d="M.163,83.611c-14.442,590.759,935.728-268.341,1287.9-45.87C1411,115.4,1531.61,303.823,1402.453,423.315c-201.51,186.433-387.943-142.172-202.126-239.628" transform="translate(191.841 501.148)" fill="none" stroke="#8eb7cc" stroke-miterlimit="10" stroke-width="0.122"/>
          <path id="Path_1912" data-name="Path 1912" d="M.2,83.9C-15.857,674.345,933.995-185.344,1285.4,37.992,1408.063,115.954,1528.1,304.62,1398.67,423.7,1196.74,609.5,1011.3,280.532,1197.3,183.632" transform="translate(187.04 480.699)" fill="none" stroke="#8eb7cc" stroke-miterlimit="10" stroke-width="0.122"/>
          <path id="Path_1913" data-name="Path 1913" d="M.243,84.187C-17.43,674.321,932.1-185.958,1282.73,38.243c122.4,78.264,241.856,267.175,112.162,385.848-202.348,185.154-386.8-144.172-200.623-240.519" transform="translate(183.703 461.383)" fill="none" stroke="#8eb7cc" stroke-miterlimit="10" stroke-width="0.122"/>
          <path id="Path_1914" data-name="Path 1914" d="M.29,84.476C-19,674.3,930.214-186.57,1280.067,38.5c122.126,78.565,241.012,267.72,111.05,385.984-202.768,184.514-386.234-145.172-199.872-240.963" transform="translate(181.766 443.177)" fill="none" stroke="#8eb7cc" stroke-miterlimit="10" stroke-width="0.122"/>
          <path id="Path_1915" data-name="Path 1915" d="M.34,84.766C-20.566,674.275,928.329-187.181,1277.41,38.749c121.856,78.867,240.169,268.267,109.937,386.121-203.187,183.874-385.664-146.174-199.12-241.408" transform="translate(181.167 426.06)" fill="none" stroke="#8eb7cc" stroke-miterlimit="10" stroke-width="0.122"/>
          <path id="Path_1916" data-name="Path 1916" d="M.394,85.056C-22.128,674.252,926.448-187.793,1274.755,39c121.587,79.169,239.326,268.814,108.825,386.257-203.606,183.235-385.095-147.172-198.367-241.852" transform="translate(181.841 410.016)" fill="none" stroke="#8eb7cc" stroke-miterlimit="10" stroke-width="0.122"/>
          <path id="Path_1917" data-name="Path 1917" d="M.452,85.348C-23.687,674.232,924.572-188.4,1272.1,39.256c121.317,79.47,238.483,269.359,107.712,386.393-204.025,182.6-384.525-148.174-197.616-242.3" transform="translate(183.725 395.017)" fill="none" stroke="#8eb7cc" stroke-miterlimit="10" stroke-width="0.122"/>
          <path id="Path_1918" data-name="Path 1918" d="M.515,85.639C-25.241,674.21,922.7-189.015,1269.457,39.51c121.045,79.772,237.638,269.905,106.6,386.529C1171.613,607.993,992.1,276.864,1179.194,183.3" transform="translate(186.757 381.048)" fill="none" stroke="#8eb7cc" stroke-miterlimit="10" stroke-width="0.122"/>
          <path id="Path_1919" data-name="Path 1919" d="M.581,85.931C-26.792,674.19,920.83-189.624,1266.816,39.765c120.775,80.075,236.8,270.452,105.488,386.665-204.863,181.316-383.386-150.174-196.113-243.185" transform="translate(190.874 368.085)" fill="none" stroke="#8eb7cc" stroke-miterlimit="10" stroke-width="0.122"/>
          <path id="Path_1920" data-name="Path 1920" d="M.651,86.224c-28.988,587.945,918.314-276.458,1263.526-46.2,120.506,80.377,235.952,271,104.377,386.8C1163.271,607.5,985.738,275.649,1173.192,183.193" transform="translate(196.011 356.108)" fill="none" stroke="#8eb7cc" stroke-miterlimit="10" stroke-width="0.122"/>
          <path id="Path_1921" data-name="Path 1921" d="M.725,86.517c-30.6,587.633,916.38-277.359,1260.817-46.24,120.235,80.679,235.109,271.544,103.266,386.938C1159.1,607.25,982.561,275.04,1170.2,183.14" transform="translate(202.107 345.098)" fill="none" stroke="#8eb7cc" stroke-miterlimit="10" stroke-width="0.122"/>
          <path id="Path_1922" data-name="Path 1922" d="M.8,86.81C-31.419,674.131,915.247-191.451,1258.912,40.533c119.966,80.98,234.266,272.091,102.153,387.074C1154.944,607,979.388,274.432,1167.208,183.086" transform="translate(209.098 335.034)" fill="none" stroke="#8eb7cc" stroke-miterlimit="10" stroke-width="0.122"/>
          <path id="Path_1923" data-name="Path 1923" d="M.884,87.1c-33.837,587.009,912.51-279.164,1255.4-46.314,119.7,81.282,233.421,272.638,101.04,387.209-206.541,178.757-381.107-154.175-193.106-244.963" transform="translate(216.922 325.892)" fill="none" stroke="#8eb7cc" stroke-miterlimit="10" stroke-width="0.122"/>
          <path id="Path_1924" data-name="Path 1924" d="M.97,87.4C-34.484,674.1,911.547-192.666,1253.661,41.048c119.424,81.585,232.578,273.183,99.929,387.347-206.959,178.117-380.537-155.175-192.354-245.41" transform="translate(225.514 317.653)" fill="none" stroke="#8eb7cc" stroke-miterlimit="10" stroke-width="0.122"/>
          <path id="Path_1925" data-name="Path 1925" d="M1.06,87.695C-36.01,674.079,909.7-193.272,1251.041,41.306c119.156,81.887,231.735,273.729,98.816,387.483-207.378,177.476-379.967-156.175-191.6-245.854" transform="translate(234.814 310.299)" fill="none" stroke="#8eb7cc" stroke-miterlimit="10" stroke-width="0.122"/>
          <path id="Path_1926" data-name="Path 1926" d="M1.153,87.99C-37.534,674.063,907.86-193.877,1248.427,41.565c118.884,82.188,230.89,274.276,97.7,387.619-207.8,176.836-379.4-157.175-190.851-246.3" transform="translate(244.754 303.805)" fill="none" stroke="#8eb7cc" stroke-miterlimit="10" stroke-width="0.122"/>
          <path id="Path_1927" data-name="Path 1927" d="M1.25,88.287c-40.3,585.758,904.772-282.771,1244.565-46.462,118.615,82.49,230.049,274.821,96.592,387.754-208.216,176.2-378.828-158.175-190.1-246.743" transform="translate(255.275 298.151)" fill="none" stroke="#8eb7cc" stroke-miterlimit="10" stroke-width="0.122"/>
          <path id="Path_1928" data-name="Path 1928" d="M1.351,88.584c-41.919,585.446,902.837-283.672,1241.857-46.5,118.345,82.792,229.2,275.368,95.481,387.89C1130.053,605.532,960.431,270.8,1149.342,182.787" transform="translate(266.313 293.32)" fill="none" stroke="#8eb7cc" stroke-miterlimit="10" stroke-width="0.122"/>
          <path id="Path_1929" data-name="Path 1929" d="M1.456,88.881C-42.08,674.015,902.358-195.692,1240.6,42.345c118.075,83.093,228.361,275.915,94.367,388.028-209.056,174.919-377.689-160.175-188.6-247.632" transform="translate(277.805 289.289)" fill="none" stroke="#8eb7cc" stroke-miterlimit="10" stroke-width="0.122"/>
          <path id="Path_1930" data-name="Path 1930" d="M1.565,89.179C-43.587,674,900.532-196.3,1238,42.606,1355.809,126,1465.521,319.066,1331.26,430.77c-209.474,174.279-377.119-161.175-187.844-248.077" transform="translate(289.686 286.036)" fill="none" stroke="#8eb7cc" stroke-miterlimit="10" stroke-width="0.122"/>
          <path id="Path_1931" data-name="Path 1931" d="M1.678,89.478C-45.091,673.987,898.71-196.9,1235.407,42.867c117.533,83.7,226.673,277.006,92.143,388.3C1117.657,604.805,951,268.991,1140.458,182.646" transform="translate(301.894 283.54)" fill="none" stroke="#8eb7cc" stroke-miterlimit="10" stroke-width="0.122"/>
          <path id="Path_1932" data-name="Path 1932" d="M1.794,89.777c-48.385,584.2,895.1-287.279,1231.022-46.648,117.264,84,225.83,277.553,91.03,388.435-210.313,173-375.979-163.175-186.34-248.966" transform="translate(314.368 281.782)" fill="none" stroke="#8eb7cc" stroke-miterlimit="10" stroke-width="0.122"/>
          <path id="Path_1933" data-name="Path 1933" d="M1.914,90.076c-50,583.883,893.162-288.182,1228.313-46.685,116.993,84.3,224.987,278.1,89.919,388.573-210.731,172.36-375.41-164.177-185.588-249.412" transform="translate(327.042 280.742)" fill="none" stroke="#8eb7cc" stroke-miterlimit="10" stroke-width="0.122"/>
          <path id="Path_1934" data-name="Path 1934" d="M2.038,90.377c-51.618,583.571,891.228-289.083,1225.6-46.722,116.724,84.6,224.144,278.645,88.806,388.709C1105.3,604.083,941.609,267.188,1131.612,182.508" transform="translate(339.856 280.396)" fill="none" stroke="#8eb7cc" stroke-miterlimit="10" stroke-width="0.122"/>
          <path id="Path_1935" data-name="Path 1935" d="M2.166,90.677C-51.067,673.936,891.459-199.308,1225.061,43.918c116.454,84.9,223.3,279.192,87.695,388.845-211.569,171.079-374.27-166.176-184.085-250.3" transform="translate(352.743 280.727)" fill="none" stroke="#8eb7cc" stroke-miterlimit="10" stroke-width="0.122"/>
          <path id="Path_1936" data-name="Path 1936" d="M2.3,90.978c-54.849,582.947,887.358-290.886,1220.187-46.8,116.184,85.206,222.455,279.739,86.582,388.98-211.989,170.441-373.7-167.178-183.334-250.745" transform="translate(365.643 281.71)" fill="none" stroke="#8eb7cc" stroke-miterlimit="10" stroke-width="0.122"/>
          <path id="Path_1937" data-name="Path 1937" d="M2.433,91.28C-54.034,673.915,887.856-200.509,1219.911,44.447c115.914,85.51,221.613,280.284,85.471,389.116-212.409,169.8-373.131-168.176-182.583-251.19" transform="translate(378.491 283.329)" fill="none" stroke="#8eb7cc" stroke-miterlimit="10" stroke-width="0.122"/>
          <path id="Path_1938" data-name="Path 1938" d="M2.572,91.582C-55.51,673.9,886.06-201.108,1217.341,44.713c115.643,85.811,220.769,280.831,84.358,389.252-212.827,169.16-372.561-169.176-181.83-251.634" transform="translate(391.224 285.559)" fill="none" stroke="#8eb7cc" stroke-miterlimit="10" stroke-width="0.122"/>
          <path id="Path_1939" data-name="Path 1939" d="M2.715,91.884c-59.7,582.008,881.553-293.592,1212.059-46.907,115.373,86.113,219.926,281.377,83.247,389.39C1084.774,602.889,926.03,264.189,1116.943,182.288" transform="translate(403.781 288.383)" fill="none" stroke="#8eb7cc" stroke-miterlimit="10" stroke-width="0.122"/>
          <path id="Path_1940" data-name="Path 1940" d="M2.861,92.187c-61.315,581.7,879.618-294.493,1209.352-46.944,115.1,86.414,219.081,281.922,82.134,389.526C1080.681,602.65,922.925,263.591,1114.02,182.246" transform="translate(416.097 291.777)" fill="none" stroke="#8eb7cc" stroke-miterlimit="10" stroke-width="0.122"/>
          <path id="Path_1941" data-name="Path 1941" d="M3.012,92.491C-59.921,673.875,880.695-202.9,1209.655,45.51c114.833,86.716,218.238,282.469,81.021,389.661C1076.591,602.413,919.825,262.994,1111.1,182.2" transform="translate(428.11 295.722)" fill="none" stroke="#8eb7cc" stroke-miterlimit="10" stroke-width="0.122"/>
          <path id="Path_1942" data-name="Path 1942" d="M3.166,92.8C-61.383,673.867,878.914-203.5,1207.1,45.777c114.563,87.018,217.4,283.016,79.91,389.8-214.5,166.6-370.281-173.178-178.824-253.412" transform="translate(439.756 300.196)" fill="none" stroke="#8eb7cc" stroke-miterlimit="10" stroke-width="0.122"/>
          <path id="Path_1943" data-name="Path 1943" d="M3.323,93.1c-66.164,580.76,873.813-297.2,1201.226-47.055,114.293,87.319,216.552,283.561,78.8,389.935C1068.424,601.942,913.635,261.8,1105.275,182.123" transform="translate(450.971 305.181)" fill="none" stroke="#8eb7cc" stroke-miterlimit="10" stroke-width="0.122"/>
          <path id="Path_1944" data-name="Path 1944" d="M3.485,93.405C-64.3,673.851,875.363-204.7,1202,46.313c114.023,87.623,215.709,284.108,77.685,390.07-215.342,165.322-369.141-175.178-177.319-254.3" transform="translate(461.696 310.652)" fill="none" stroke="#8eb7cc" stroke-miterlimit="10" stroke-width="0.122"/>
          <path id="Path_1945" data-name="Path 1945" d="M3.65,93.711c-69.4,580.133,869.944-299,1195.808-47.129,113.754,87.924,214.866,284.655,76.572,390.206C1060.268,601.472,907.458,260.61,1099.462,182.041" transform="translate(471.864 316.592)" fill="none" stroke="#8eb7cc" stroke-miterlimit="10" stroke-width="0.122"/>
          <path id="Path_1946" data-name="Path 1946" d="M3.818,94.018C-67.2,673.839,871.827-205.888,1196.919,46.852c113.482,88.226,214.021,285.2,75.461,390.342C1056.2,601.237,904.378,260.015,1096.563,182" transform="translate(481.412 322.979)" fill="none" stroke="#8eb7cc" stroke-miterlimit="10" stroke-width="0.122"/>
          <path id="Path_1947" data-name="Path 1947" d="M3.991,94.324c-72.63,579.509,866.074-300.807,1190.391-47.2,113.212,88.527,213.178,285.746,74.348,390.478C1052.13,601,901.3,259.421,1093.664,181.963" transform="translate(490.277 329.791)" fill="none" stroke="#8eb7cc" stroke-miterlimit="10" stroke-width="0.122"/>
          <path id="Path_1948" data-name="Path 1948" d="M4.167,94.631c-74.248,579.2,864.139-301.709,1187.682-47.24,112.942,88.829,212.335,286.293,73.237,390.615-217.02,162.763-366.864-179.178-174.314-256.081" transform="translate(498.4 337.009)" fill="none" stroke="#8eb7cc" stroke-miterlimit="10" stroke-width="0.122"/>
          <path id="Path_1949" data-name="Path 1949" d="M4.346,94.938c-75.863,578.885,862.2-302.61,1184.975-47.277,112.672,89.131,211.49,286.838,72.124,390.751-217.437,162.124-366.293-180.179-173.561-256.525" transform="translate(505.711 344.612)" fill="none" stroke="#8eb7cc" stroke-miterlimit="10" stroke-width="0.122"/>
          <path id="Path_1950" data-name="Path 1950" d="M4.53,95.247C-72.949,673.817,864.8-208.265,1186.795,47.932c112.4,89.432,210.647,287.385,71.013,390.887C1039.95,600.3,892.085,257.641,1085,181.85" transform="translate(512.155 352.578)" fill="none" stroke="#8eb7cc" stroke-miterlimit="10" stroke-width="0.122"/>
          <path id="Path_1951" data-name="Path 1951" d="M4.717,95.555C-74.379,673.814,863.051-208.859,1184.273,48.2c112.131,89.736,209.8,287.932,69.9,391.025C1035.9,600.073,889.02,257.05,1082.115,181.815" transform="translate(517.661 360.887)" fill="none" stroke="#8eb7cc" stroke-miterlimit="10" stroke-width="0.122"/>
          <path id="Path_1952" data-name="Path 1952" d="M4.907,95.864C-75.8,673.811,861.307-209.452,1181.754,48.476c111.861,90.037,208.96,288.478,68.789,391.161-218.695,160.205-364.583-183.179-171.307-257.859" transform="translate(522.171 369.521)" fill="none" stroke="#8eb7cc" stroke-miterlimit="10" stroke-width="0.122"/>
          <path id="Path_1953" data-name="Path 1953" d="M5.1,96.175C-77.228,673.809,859.566-210.044,1179.241,48.749c111.591,90.339,208.116,289.024,67.676,391.3C1027.8,599.611,882.9,255.865,1076.361,181.743" transform="translate(525.619 378.453)" fill="none" stroke="#8eb7cc" stroke-miterlimit="10" stroke-width="0.122"/>
          <path id="Path_1954" data-name="Path 1954" d="M5.3,96.484c-83.945,577.322,852.529-307.12,1171.43-47.462,111.321,90.64,207.273,289.57,66.564,391.432C1023.759,599.379,879.85,255.273,1073.49,181.7" transform="translate(527.943 387.668)" fill="none" stroke="#8eb7cc" stroke-miterlimit="10" stroke-width="0.122"/>
          <path id="Path_1955" data-name="Path 1955" d="M5.5,96.8C-80.06,673.8,856.1-211.226,1174.221,49.3c111.051,90.942,206.429,290.117,65.451,391.568C1019.721,599.15,876.8,254.683,1070.622,181.67" transform="translate(529.083 397.141)" fill="none" stroke="#8eb7cc" stroke-miterlimit="10" stroke-width="0.122"/>
          <path id="Path_1956" data-name="Path 1956" d="M5.706,97.106C-81.472,673.8,854.365-211.817,1171.717,49.57c110.781,91.245,205.586,290.662,64.34,391.705-220.372,157.646-362.3-187.181-168.3-259.638" transform="translate(528.971 406.856)" fill="none" stroke="#8eb7cc" stroke-miterlimit="10" stroke-width="0.122"/>
          <path id="Path_1957" data-name="Path 1957" d="M5.914,97.418C-82.88,673.8,852.639-212.408,1169.218,49.845c110.51,91.547,204.741,291.209,63.227,391.841C1011.655,598.692,870.711,253.5,1064.9,181.6" transform="translate(527.546 416.788)" fill="none" stroke="#8eb7cc" stroke-miterlimit="10" stroke-width="0.122"/>
          <path id="Path_1958" data-name="Path 1958" d="M6.126,97.73C-84.283,673.8,850.916-213,1166.721,50.12c110.24,91.849,203.9,291.756,62.116,391.977-221.21,156.365-361.165-189.181-166.8-260.527" transform="translate(524.744 426.917)" fill="none" stroke="#8eb7cc" stroke-miterlimit="10" stroke-width="0.122"/>
          <path id="Path_1959" data-name="Path 1959" d="M6.342,98.042C-85.685,673.8,849.2-213.586,1164.23,50.395c109.97,92.15,203.055,292.3,61,392.113-221.63,155.727-360.6-190.181-166.045-260.972" transform="translate(520.505 437.223)" fill="none" stroke="#8eb7cc" stroke-miterlimit="10" stroke-width="0.122"/>
          <path id="Path_1960" data-name="Path 1960" d="M6.561,98.355C-87.083,673.8,847.481-214.175,1161.74,50.67c109.7,92.452,202.212,292.847,59.892,392.249C999.584,598.006,861.606,251.738,1056.338,181.5" transform="translate(514.762 447.688)" fill="none" stroke="#8eb7cc" stroke-miterlimit="10" stroke-width="0.122"/>
          <path id="Path_1961" data-name="Path 1961" d="M6.784,98.668C-88.476,673.8,845.771-214.765,1159.253,50.948c109.43,92.754,201.369,293.394,58.779,392.385C995.564,597.781,858.576,251.151,1053.491,181.472" transform="translate(507.454 458.287)" fill="none" stroke="#8eb7cc" stroke-miterlimit="10" stroke-width="0.122"/>
          <path id="Path_1962" data-name="Path 1962" d="M7.01,98.983C-89.865,673.805,844.06-215.351,1156.77,51.224c109.161,93.057,200.524,293.941,57.666,392.522C991.549,597.554,855.55,250.565,1050.647,181.441" transform="translate(498.518 469)" fill="none" stroke="#8eb7cc" stroke-miterlimit="10" stroke-width="0.122"/>
          <path id="Path_1963" data-name="Path 1963" d="M7.24,99.3C-91.253,673.8,842.356-215.94,1154.293,51.5c108.889,93.359,199.681,294.486,56.555,392.658C987.542,597.327,852.531,249.978,1047.81,181.41" transform="translate(487.89 479.808)" fill="none" stroke="#8eb7cc" stroke-miterlimit="10" stroke-width="0.122"/>
          <path id="Path_1964" data-name="Path 1964" d="M7.473,99.612c-100.109,574.2,833.182-316.138,1144.343-47.833,108.619,93.66,198.838,295.033,55.442,392.794C983.533,597.1,849.512,249.391,1044.972,181.379" transform="translate(475.508 490.688)" fill="none" stroke="#8eb7cc" stroke-miterlimit="10" stroke-width="0.122"/>
          <path id="Path_1965" data-name="Path 1965" d="M7.71,99.927c-101.724,573.884,831.246-317.04,1141.634-47.87,108.349,93.962,197.995,295.578,54.331,392.931C979.524,596.878,846.5,248.807,1042.14,181.348" transform="translate(461.307 501.621)" fill="none" stroke="#8eb7cc" stroke-miterlimit="10" stroke-width="0.122"/>
          <path id="Path_1966" data-name="Path 1966" d="M7.951,100.243C-95.391,673.815,837.263-217.7,1146.875,52.336,1254.955,146.6,1344.027,348.46,1200.093,445.4,975.53,596.652,843.486,248.221,1039.311,181.318" transform="translate(448.482 510.641)" fill="none" stroke="#8eb7cc" stroke-miterlimit="10" stroke-width="0.122"/>
          <path id="Path_1967" data-name="Path 1967" d="M8.194,100.559C-96.763,673.819,835.572-218.285,1144.412,52.615c107.81,94.565,196.307,296.671,52.106,393.2C971.535,596.427,840.48,247.637,1036.488,181.289" transform="translate(437.989 517.533)" fill="none" stroke="#8eb7cc" stroke-miterlimit="10" stroke-width="0.122"/>
          <path id="Path_1968" data-name="Path 1968" d="M8.442,100.876C-98.133,673.824,833.884-218.869,1141.95,52.9c107.54,94.867,195.464,297.218,50.994,393.339C967.542,596.2,837.475,247.052,1033.664,181.26" transform="translate(428.312 523.296)" fill="none" stroke="#8eb7cc" stroke-miterlimit="10" stroke-width="0.122"/>
          <path id="Path_1969" data-name="Path 1969" d="M8.692,101.192C-99.5,673.826,832.2-219.455,1139.491,53.176c107.27,95.168,194.621,297.763,49.882,393.475-225.821,149.33-354.9-200.182-158.528-265.418" transform="translate(419.394 527.963)" fill="none" stroke="#8eb7cc" stroke-miterlimit="10" stroke-width="0.122"/>
          <path id="Path_1970" data-name="Path 1970" d="M8.947,101.511C-100.861,673.833,830.52-220.039,1137.038,53.456c107,95.472,193.778,298.31,48.769,393.612C959.567,595.758,831.479,245.886,1028.031,181.205" transform="translate(411.185 531.56)" fill="none" stroke="#8eb7cc" stroke-miterlimit="10" stroke-width="0.122"/>
          <path id="Path_1971" data-name="Path 1971" d="M9.2,101.829C-102.219,673.839,828.842-220.622,1134.587,53.737c106.728,95.773,192.935,298.857,47.658,393.748C955.586,595.536,828.486,245.3,1025.22,181.178" transform="translate(403.632 534.12)" fill="none" stroke="#8eb7cc" stroke-miterlimit="10" stroke-width="0.122"/>
          <path id="Path_1972" data-name="Path 1972" d="M9.465,102.147c-113.039,571.7,817.7-323.352,1122.673-48.129,106.458,96.075,192.09,299.4,46.545,393.884C951.605,595.312,825.495,244.719,1022.412,181.15" transform="translate(396.681 535.679)" fill="none" stroke="#8eb7cc" stroke-miterlimit="10" stroke-width="0.122"/>
          <path id="Path_1973" data-name="Path 1973" d="M9.73,102.467C-104.926,673.852,825.5-221.789,1129.7,54.3c106.188,96.376,191.247,299.948,45.434,394.021-227.5,146.77-352.619-204.182-155.521-267.2" transform="translate(390.28 536.262)" fill="none" stroke="#8eb7cc" stroke-miterlimit="10" stroke-width="0.122"/>
          <path id="Path_1974" data-name="Path 1974" d="M10,102.786c-116.272,571.073,813.833-325.157,1117.256-48.2,105.919,96.678,190.4,300.5,44.321,394.157C943.659,594.87,819.526,243.556,1016.806,181.1" transform="translate(384.378 535.904)" fill="none" stroke="#8eb7cc" stroke-miterlimit="10" stroke-width="0.122"/>
          <path id="Path_1975" data-name="Path 1975" d="M10.269,103.1c-117.888,570.759,811.9-326.058,1114.547-48.238,105.649,96.981,189.56,301.04,43.21,394.293C939.69,594.651,816.546,242.975,1014.009,181.073" transform="translate(378.92 534.636)" fill="none" stroke="#8eb7cc" stroke-miterlimit="10" stroke-width="0.122"/>
          <path id="Path_1976" data-name="Path 1976" d="M10.544,103.426c-119.505,570.446,809.963-326.96,1111.838-48.277,105.379,97.283,188.717,301.587,42.1,394.429-228.756,144.851-350.91-207.184-153.266-268.531" transform="translate(373.854 532.486)" fill="none" stroke="#8eb7cc" stroke-miterlimit="10" stroke-width="0.122"/>
          <path id="Path_1977" data-name="Path 1977" d="M10.822,103.746C-110.3,673.881,818.851-224.116,1119.953,55.434,1225.06,153.018,1307.825,357.568,1160.937,450,931.763,594.209,810.6,241.814,1008.422,181.022" transform="translate(369.128 529.488)" fill="none" stroke="#8eb7cc" stroke-miterlimit="10" stroke-width="0.122"/>
          <path id="Path_1978" data-name="Path 1978" d="M11.1,104.067C-111.634,673.889,817.2-224.7,1117.525,55.718c104.837,97.886,187.029,302.679,39.873,394.7C927.8,593.99,807.629,241.234,1005.636,181" transform="translate(364.687 525.673)" fill="none" stroke="#8eb7cc" stroke-miterlimit="10" stroke-width="0.122"/>
          <path id="Path_1979" data-name="Path 1979" d="M11.389,104.39C-112.965,673.9,815.548-225.277,1115.1,56c104.568,98.188,186.186,303.226,38.76,394.836-230.012,142.932-349.2-210.185-151.01-269.865" transform="translate(360.481 521.07)" fill="none" stroke="#8eb7cc" stroke-miterlimit="10" stroke-width="0.122"/>
          <path id="Path_1980" data-name="Path 1980" d="M11.678,104.711c-125.971,569.2,802.224-330.568,1101-48.424,104.3,98.49,185.341,303.772,37.648,394.974C919.9,593.553,801.7,240.077,1000.072,180.952" transform="translate(356.455 515.715)" fill="none" stroke="#8eb7cc" stroke-miterlimit="10" stroke-width="0.122"/>
          <path id="Path_1981" data-name="Path 1981" d="M11.969,105.034c-127.587,568.884,800.289-331.469,1098.3-48.461,104.028,98.791,184.5,304.317,36.536,395.11C915.949,593.336,798.739,239.5,997.293,180.929" transform="translate(352.56 509.633)" fill="none" stroke="#8eb7cc" stroke-miterlimit="10" stroke-width="0.122"/>
          <path id="Path_1982" data-name="Path 1982" d="M12.265,105.358c-129.2,568.572,798.354-332.371,1095.586-48.5,103.758,99.094,183.655,304.864,35.423,395.245C912,593.117,795.783,238.919,994.517,180.9" transform="translate(348.739 502.859)" fill="none" stroke="#8eb7cc" stroke-miterlimit="10" stroke-width="0.122"/>
          <path id="Path_1983" data-name="Path 1983" d="M12.563,105.681C-118.257,673.94,808.982-227.593,1105.44,57.146c103.488,99.4,182.812,305.411,34.311,395.383-231.689,140.373-346.921-214.185-148-271.643" transform="translate(344.941 495.424)" fill="none" stroke="#8eb7cc" stroke-miterlimit="10" stroke-width="0.122"/>
          <path id="Path_1984" data-name="Path 1984" d="M12.865,106c-132.436,567.947,794.484-334.175,1090.17-48.572,103.217,99.7,181.967,305.956,33.2,395.519C904.126,592.686,789.882,237.766,988.981,180.864" transform="translate(341.115 487.359)" fill="none" stroke="#8eb7cc" stroke-miterlimit="10" stroke-width="0.122"/>
          <path id="Path_1985" data-name="Path 1985" d="M13.17,106.329C-120.882,673.964,805.719-228.748,1100.63,57.72c102.947,100,181.124,306.5,32.087,395.655C900.19,592.469,786.934,237.189,986.217,180.841" transform="translate(337.205 478.696)" fill="none" stroke="#8eb7cc" stroke-miterlimit="10" stroke-width="0.122"/>
          <path id="Path_1986" data-name="Path 1986" d="M13.478,106.653C-122.19,673.976,804.093-229.325,1098.23,58.007c102.677,100.3,180.281,307.05,30.974,395.791C896.257,592.251,783.993,236.612,983.455,180.819" transform="translate(333.162 469.463)" fill="none" stroke="#8eb7cc" stroke-miterlimit="10" stroke-width="0.122"/>
          <path id="Path_1987" data-name="Path 1987" d="M13.79,106.979C-123.5,673.988,802.47-229.9,1095.834,58.3c102.407,100.6,179.438,307.6,29.863,395.926C892.331,592.038,781.056,236.037,980.7,180.8" transform="translate(328.929 459.693)" fill="none" stroke="#8eb7cc" stroke-miterlimit="10" stroke-width="0.122"/>
          <path id="Path_1988" data-name="Path 1988" d="M14.105,107.3C-124.8,674,800.85-230.478,1093.44,58.584c102.137,100.906,178.595,308.141,28.75,396.064C888.406,591.823,778.118,235.463,977.944,180.781" transform="translate(324.457 449.418)" fill="none" stroke="#8eb7cc" stroke-miterlimit="10" stroke-width="0.122"/>
          <path id="Path_1989" data-name="Path 1989" d="M14.424,107.63c-140.518,566.385,784.81-338.684,1076.625-48.757,101.867,101.208,177.75,308.688,27.639,396.2-234.2,136.535-343.5-220.185-143.493-274.312" transform="translate(319.692 438.668)" fill="none" stroke="#8eb7cc" stroke-miterlimit="10" stroke-width="0.122"/>
          <path id="Path_1990" data-name="Path 1990" d="M14.746,107.957C-127.389,674.03,797.62-231.629,1088.664,59.163c101.6,101.509,176.907,309.235,26.526,396.335C880.567,591.393,772.257,234.313,972.448,180.743" transform="translate(314.581 427.474)" fill="none" stroke="#8eb7cc" stroke-miterlimit="10" stroke-width="0.122"/>
          <path id="Path_1991" data-name="Path 1991" d="M15.071,108.284C-128.68,674.044,796.011-232.2,1086.279,59.453c101.326,101.811,176.064,309.78,25.415,396.471C876.652,591.18,769.331,233.737,969.7,180.724" transform="translate(309.071 415.87)" fill="none" stroke="#8eb7cc" stroke-miterlimit="10" stroke-width="0.122"/>
          <path id="Path_1992" data-name="Path 1992" d="M15.4,108.611c-145.366,565.448,779-341.389,1068.5-48.868,101.056,102.112,175.221,310.327,24.3,396.609C872.738,590.967,766.407,233.164,966.961,180.707" transform="translate(303.111 403.884)" fill="none" stroke="#8eb7cc" stroke-miterlimit="10" stroke-width="0.122"/>
          <path id="Path_1993" data-name="Path 1993" d="M15.731,108.938C-131.253,674.072,792.8-233.352,1081.523,60.033c100.786,102.416,174.376,310.873,23.19,396.745C868.833,590.754,763.49,232.591,964.226,180.689" transform="translate(296.646 391.548)" fill="none" stroke="#8eb7cc" stroke-miterlimit="10" stroke-width="0.122"/>
          <path id="Path_1994" data-name="Path 1994" d="M16.066,109.267C-132.535,674.089,791.2-233.926,1079.148,60.325c100.516,102.716,173.533,311.418,22.078,396.88C864.927,590.543,760.572,232.018,961.49,180.672" transform="translate(289.624 378.894)" fill="none" stroke="#8eb7cc" stroke-miterlimit="10" stroke-width="0.122"/>
          <path id="Path_1995" data-name="Path 1995" d="M16.4,109.6C-133.813,674.1,789.6-234.5,1076.777,60.616c100.246,103.019,172.689,311.965,20.967,397.016-236.719,132.7-340.084-226.188-138.985-276.98" transform="translate(281.993 365.953)" fill="none" stroke="#8eb7cc" stroke-miterlimit="10" stroke-width="0.122"/>
          <path id="Path_1996" data-name="Path 1996" d="M16.745,109.925c-151.832,564.2,771.265-345,1057.664-49.016,99.974,103.321,171.846,312.512,19.853,397.152C857.125,590.118,754.748,230.873,956.031,180.637" transform="translate(273.701 352.754)" fill="none" stroke="#8eb7cc" stroke-miterlimit="10" stroke-width="0.122"/>
          <path id="Path_1997" data-name="Path 1997" d="M17.089,110.254C-136.359,674.139,786.422-235.645,1072.046,61.2c99.7,103.622,171,313.057,18.74,397.29C853.229,589.908,751.842,230.3,953.306,180.621" transform="translate(264.694 339.331)" fill="none" stroke="#8eb7cc" stroke-miterlimit="10" stroke-width="0.122"/>
          <path id="Path_1998" data-name="Path 1998" d="M17.438,110.584c-155.065,563.573,767.4-346.8,1052.248-49.09,99.435,103.924,170.159,313.6,17.629,397.426C849.339,589.7,748.939,229.731,950.586,180.606" transform="translate(254.918 325.714)" fill="none" stroke="#8eb7cc" stroke-miterlimit="10" stroke-width="0.122"/>
          <path id="Path_1999" data-name="Path 1999" d="M17.789,110.915c-156.681,563.259,765.461-347.7,1049.538-49.127,99.165,104.225,169.315,314.151,16.518,397.561C845.45,589.486,746.04,229.161,947.867,180.591" transform="translate(244.323 311.934)" fill="none" stroke="#8eb7cc" stroke-miterlimit="10" stroke-width="0.122"/>
          <path id="Path_2000" data-name="Path 2000" d="M18.143,111.245c-158.3,562.947,763.528-348.6,1046.829-49.164,98.9,104.527,168.472,314.7,15.405,397.7-238.815,129.5-337.236-231.188-135.226-279.2" transform="translate(232.856 298.024)" fill="none" stroke="#8eb7cc" stroke-miterlimit="10" stroke-width="0.122"/>
          <path id="Path_2001" data-name="Path 2001" d="M18.5,111.577c-159.914,562.635,761.593-349.506,1044.122-49.2,98.625,104.829,167.629,315.243,14.294,397.833C837.682,589.067,740.25,228.02,942.441,180.561" transform="translate(220.463 284.013)" fill="none" stroke="#8eb7cc" stroke-miterlimit="10" stroke-width="0.122"/>
          <path id="Path_2002" data-name="Path 2002" d="M18.861,111.907C-142.67,674.23,778.517-238.5,1060.274,62.669c98.355,105.132,166.786,315.789,13.181,397.971C833.8,588.858,737.359,227.451,939.733,180.548" transform="translate(207.09 269.933)" fill="none" stroke="#8eb7cc" stroke-miterlimit="10" stroke-width="0.122"/>
          <path id="Path_2003" data-name="Path 2003" d="M19.225,112.24c-163.147,562.01,757.723-351.311,1038.7-49.276C1156.014,168.4,1223.87,379.3,1070,461.07,829.926,588.65,734.472,226.882,937.028,180.533" transform="translate(192.688 255.815)" fill="none" stroke="#8eb7cc" stroke-miterlimit="10" stroke-width="0.122"/>
          <path id="Path_2004" data-name="Path 2004" d="M19.592,112.572c-164.763,561.7,755.788-352.212,1036-49.313,97.814,105.735,165.1,316.881,10.957,398.242C826.053,588.441,731.588,226.313,934.324,180.519" transform="translate(176.537 240.816)" fill="none" stroke="#8eb7cc" stroke-miterlimit="10" stroke-width="0.122"/>
          <path id="Path_2005" data-name="Path 2005" d="M19.963,112.9c-166.38,561.384,753.853-353.113,1033.287-49.35,97.544,106.037,164.255,317.428,9.844,398.378-240.91,126.3-334.387-236.188-131.467-281.427" transform="translate(161.581 226.22)" fill="none" stroke="#8eb7cc" stroke-miterlimit="10" stroke-width="0.122"/>
          <path id="Path_2006" data-name="Path 2006" d="M20.336,113.238c-168,561.072,751.918-354.016,1030.577-49.387,97.274,106.34,163.412,317.975,8.733,398.516C818.318,588.026,725.829,225.179,928.932,180.5" transform="translate(148.732 212.725)" fill="none" stroke="#8eb7cc" stroke-miterlimit="10" stroke-width="0.122"/>
          <path id="Path_2007" data-name="Path 2007" d="M20.713,113.571C-148.9,674.331,770.7-241.346,1048.582,64.148c97,106.642,162.567,318.52,7.62,398.651C814.453,587.82,722.954,224.611,926.236,180.484" transform="translate(137.817 200.253)" fill="none" stroke="#8eb7cc" stroke-miterlimit="10" stroke-width="0.122"/>
          <path id="Path_2008" data-name="Path 2008" d="M21.093,113.905C-150.136,674.353,769.141-241.914,1046.254,64.444c96.734,106.943,161.724,319.067,6.508,398.787-242.168,124.38-332.678-239.189-129.212-282.76" transform="translate(128.657 188.724)" fill="none" stroke="#8eb7cc" stroke-miterlimit="10" stroke-width="0.122"/>
          <path id="Path_2009" data-name="Path 2009" d="M21.476,114.24c-172.846,560.135,746.113-356.72,1022.452-49.5,96.465,107.245,160.881,319.613,5.4,398.923-242.586,123.74-332.108-240.189-128.46-283.2" transform="translate(121.077 178.057)" fill="none" stroke="#8eb7cc" stroke-miterlimit="10" stroke-width="0.122"/>
          <path id="Path_2010" data-name="Path 2010" d="M21.862,114.575C-152.6,674.4,766.041-243.048,1041.6,65.04,1137.8,172.587,1201.642,385.2,1045.889,464.1,802.883,587.2,714.351,222.91,918.18,180.45" transform="translate(114.906 168.173)" fill="none" stroke="#8eb7cc" stroke-miterlimit="10" stroke-width="0.122"/>
          <path id="Path_2011" data-name="Path 2011" d="M22.251,114.91C-153.826,674.419,764.495-243.615,1039.286,65.338c95.923,107.848,159.193,320.705,3.171,399.2C799.032,587,711.489,222.345,915.5,180.441" transform="translate(109.964 158.992)" fill="none" stroke="#8eb7cc" stroke-miterlimit="10" stroke-width="0.122"/>
          <path id="Path_2012" data-name="Path 2012" d="M22.644,115.246c-177.7,559.2,740.307-359.431,1014.324-49.609,95.653,108.15,158.35,321.252,2.06,399.332-243.843,121.821-330.4-243.191-126.206-284.538" transform="translate(106.079 150.435)" fill="none" stroke="#8eb7cc" stroke-miterlimit="10" stroke-width="0.122"/>
          <path id="Path_2013" data-name="Path 2013" d="M23.039,115.581C-156.271,674.466,761.413-244.748,1034.656,65.935c95.383,108.452,157.507,321.8.947,399.468C791.34,586.586,705.774,221.214,910.15,180.421" transform="translate(103.075 142.42)" fill="none" stroke="#8eb7cc" stroke-miterlimit="10" stroke-width="0.122"/>
          <path id="Path_2014" data-name="Path 2014" d="M23.438,115.917C-157.49,674.49,759.877-245.313,1032.346,66.234c95.114,108.755,156.664,322.344-.166,399.6C787.5,586.38,702.92,220.647,907.479,180.411" transform="translate(100.777 134.87)" fill="none" stroke="#8eb7cc" stroke-miterlimit="10" stroke-width="0.122"/>
          <path id="Path_2015" data-name="Path 2015" d="M23.84,116.254c-182.544,558.26,734.5-362.132,1006.2-49.72,94.844,109.057,155.82,322.89-1.277,399.74-245.1,119.9-328.69-246.191-123.95-285.873" transform="translate(99.008 127.702)" fill="none" stroke="#8eb7cc" stroke-miterlimit="10" stroke-width="0.122"/>
          <path id="Path_2016" data-name="Path 2016" d="M24.245,116.591c-184.16,557.946,732.569-363.035,1003.491-49.757,94.572,109.358,154.975,323.437-2.388,399.877-245.521,119.264-328.12-247.191-123.2-286.318" transform="translate(97.596 120.839)" fill="none" stroke="#8eb7cc" stroke-miterlimit="10" stroke-width="0.122"/>
          <path id="Path_2017" data-name="Path 2017" d="M24.653,116.927C-161.124,674.561,755.287-247,1025.435,67.132c94.3,109.66,154.132,323.982-3.5,400.013C775.995,585.769,694.383,218.954,899.486,180.383" transform="translate(96.366 114.201)" fill="none" stroke="#8eb7cc" stroke-miterlimit="10" stroke-width="0.122"/>
          <path id="Path_2018" data-name="Path 2018" d="M25.064,117.267c-187.393,557.322,728.7-364.837,998.074-49.831,94.032,109.961,153.289,324.529-4.614,400.149C772.165,585.568,691.543,218.393,896.83,180.378" transform="translate(95.14 107.702)" fill="none" stroke="#8eb7cc" stroke-miterlimit="10" stroke-width="0.122"/>
          <path id="Path_2019" data-name="Path 2019" d="M25.479,117.6c-189.01,557.01,726.764-365.739,995.365-49.868,93.762,110.263,152.446,325.074-5.725,400.285C768.34,585.366,688.707,217.83,894.175,180.37" transform="translate(93.743 101.27)" fill="none" stroke="#8eb7cc" stroke-miterlimit="10" stroke-width="0.122"/>
          <path id="Path_2020" data-name="Path 2020" d="M25.9,117.944c-190.626,556.7,724.83-366.642,992.655-49.905,93.493,110.566,151.6,325.621-6.838,400.422-247.2,116.7-325.841-251.191-120.191-288.1" transform="translate(92.001 94.823)" fill="none" stroke="#8eb7cc" stroke-miterlimit="10" stroke-width="0.122"/>
          <path id="Path_2021" data-name="Path 2021" d="M26.316,118.282C-165.925,674.668,749.21-249.261,1016.264,68.34c93.223,110.868,150.758,326.168-7.95,400.558C760.7,584.962,683.043,216.706,888.874,180.358" transform="translate(89.741 88.279)" fill="none" stroke="#8eb7cc" stroke-miterlimit="10" stroke-width="0.122"/>
          <path id="Path_2022" data-name="Path 2022" d="M26.74,118.622C-167.119,674.693,747.7-249.822,1013.978,68.643c92.951,111.169,149.915,326.714-9.062,400.694C756.88,584.76,680.214,216.145,886.227,180.352" transform="translate(86.785 81.56)" fill="none" stroke="#8eb7cc" stroke-miterlimit="10" stroke-width="0.122"/>
          <path id="Path_2023" data-name="Path 2023" d="M27.166,118.962C-168.308,674.721,746.191-250.385,1011.7,68.946c92.681,111.471,149.072,327.259-10.174,400.83C753.066,584.561,677.39,215.584,883.585,180.346" transform="translate(82.958 74.584)" fill="none" stroke="#8eb7cc" stroke-miterlimit="10" stroke-width="0.122"/>
          <path id="Path_2024" data-name="Path 2024" d="M27.6,119.3c-197.092,555.447,717.09-370.249,981.82-50.053,92.411,111.773,148.229,327.806-11.287,400.965C749.256,584.359,674.569,215.022,880.945,180.34" transform="translate(78.087 67.274)" fill="none" stroke="#8eb7cc" stroke-miterlimit="10" stroke-width="0.122"/>
          <path id="Path_2025" data-name="Path 2025" d="M28.028,119.643c-198.707,555.135,715.155-371.15,979.113-50.09,92.142,112.074,147.384,328.353-12.4,401.1-249.294,113.5-322.993-256.192-116.433-290.32" transform="translate(71.994 59.548)" fill="none" stroke="#8eb7cc" stroke-miterlimit="10" stroke-width="0.122"/>
          <path id="Path_2026" data-name="Path 2026" d="M28.464,119.984c-200.323,554.823,713.22-372.053,976.4-50.127,91.872,112.378,146.541,328.9-13.511,401.239C741.645,583.96,668.935,213.9,875.675,180.331" transform="translate(64.505 51.326)" fill="none" stroke="#8eb7cc" stroke-miterlimit="10" stroke-width="0.122"/>
          <path id="Path_2027" data-name="Path 2027" d="M28.9,120.325C-173.038,674.836,740.188-252.629,1002.6,70.16c91.6,112.679,145.7,329.445-14.624,401.375C737.842,583.761,666.122,213.343,873.043,180.326" transform="translate(55.447 42.531)" fill="none" stroke="#8eb7cc" stroke-miterlimit="10" stroke-width="0.122"/>
          <path id="Path_2028" data-name="Path 2028" d="M29.344,120.667c-203.556,554.2,709.35-373.856,970.987-50.2,91.332,112.981,144.855,329.992-15.735,401.511C734.045,583.561,663.314,212.782,870.418,180.322" transform="translate(44.641 33.081)" fill="none" stroke="#8eb7cc" stroke-miterlimit="10" stroke-width="0.122"/>
          <path id="Path_2029" data-name="Path 2029" d="M29.789,121.009C-175.385,674.894,737.2-253.75,998.067,70.771c91.06,113.283,144.01,330.536-16.848,401.648C730.25,583.364,660.505,212.225,867.792,180.321" transform="translate(31.915 22.895)" fill="none" stroke="#8eb7cc" stroke-miterlimit="10" stroke-width="0.122"/>
          <path id="Path_2030" data-name="Path 2030" d="M30.237,121.351c-206.789,553.572,705.48-375.66,965.569-50.276,90.79,113.584,143.167,331.083-17.959,401.784C726.457,583.167,657.7,211.667,865.172,180.317" transform="translate(17.094 11.896)" fill="none" stroke="#8eb7cc" stroke-miterlimit="10" stroke-width="0.122"/>
          <path id="Path_2031" data-name="Path 2031" d="M30.687,121.694c-208.4,553.26,703.546-376.562,962.859-50.313,90.521,113.886,142.324,331.63-19.072,401.92C722.667,582.968,654.9,211.109,862.552,180.314" transform="translate(0 0)" fill="none" stroke="#8eb7cc" stroke-miterlimit="10" stroke-width="0.122"/>
        </g>
      </g>
      <g id="Group_2086" data-name="Group 2086" transform="translate(4.48 4.48)">
        <path id="Path_2032" data-name="Path 2032" d="M70.463,0C-310.12,452.423,968.613,379.556,1104.628,773.488c47.48,137.512,23.9,360.087-151.688,372.686-273.948,19.654-214.152-353.57-8.084-313.533" transform="translate(937.721 611.251)" fill="none" stroke="#8eb7cc" stroke-miterlimit="10" stroke-width="0.447"/>
        <path id="Path_2033" data-name="Path 2033" d="M70.62,0c-380.583,452.423,894.7,375.688,1030.712,769.62,47.48,137.514,23.9,360.087-151.688,372.686C675.7,1161.96,735.493,788.736,941.56,828.773" transform="translate(930.568 586.224)" fill="none" stroke="#8eb7cc" stroke-miterlimit="10" stroke-width="0.445"/>
        <path id="Path_2034" data-name="Path 2034" d="M70.778,0C-309.8,452.423,962.02,371.819,1098.036,765.75c47.48,137.512,23.9,360.087-151.688,372.686C672.4,1158.09,732.2,784.866,938.265,824.9" transform="translate(923.096 562.594)" fill="none" stroke="#8eb7cc" stroke-miterlimit="10" stroke-width="0.442"/>
        <path id="Path_2035" data-name="Path 2035" d="M70.937,0c-380.583,452.423,887.786,367.951,1023.8,761.882,47.48,137.514,23.9,360.087-151.688,372.686C669.1,1154.222,728.9,781,934.968,821.035" transform="translate(915.305 540.34)" fill="none" stroke="#8eb7cc" stroke-miterlimit="10" stroke-width="0.44"/>
        <path id="Path_2036" data-name="Path 2036" d="M71.1,0C-309.487,452.423,955.429,364.082,1091.445,758.014c47.48,137.512,23.9,360.087-151.688,372.685-273.948,19.654-214.152-353.57-8.084-313.533" transform="translate(907.196 519.437)" fill="none" stroke="#8eb7cc" stroke-miterlimit="10" stroke-width="0.438"/>
        <path id="Path_2037" data-name="Path 2037" d="M71.256,0C-309.327,452.423,952.135,360.213,1088.149,754.144c47.48,137.514,23.9,360.087-151.688,372.686C662.514,1146.485,722.31,773.26,928.378,813.3" transform="translate(898.773 499.859)" fill="none" stroke="#8eb7cc" stroke-miterlimit="10" stroke-width="0.436"/>
        <path id="Path_2038" data-name="Path 2038" d="M71.417,0c-380.583,452.423,877.424,356.345,1013.44,750.276,47.48,137.512,23.9,360.087-151.688,372.686-273.948,19.654-214.151-353.57-8.083-313.533" transform="translate(890.033 481.581)" fill="none" stroke="#8eb7cc" stroke-miterlimit="10" stroke-width="0.433"/>
        <path id="Path_2039" data-name="Path 2039" d="M71.578,0C-309,452.423,945.548,352.475,1081.563,746.408c47.48,137.512,23.9,360.087-151.688,372.684-273.948,19.656-214.151-353.57-8.083-313.533" transform="translate(880.978 464.579)" fill="none" stroke="#8eb7cc" stroke-miterlimit="10" stroke-width="0.431"/>
        <path id="Path_2040" data-name="Path 2040" d="M71.74,0C-308.842,452.423,942.25,348.607,1078.275,742.538c47.48,137.512,23.9,360.087-151.688,372.685-273.948,19.654-214.151-353.57-8.083-313.533" transform="translate(871.611 448.828)" fill="none" stroke="#8eb7cc" stroke-miterlimit="10" stroke-width="0.429"/>
        <path id="Path_2041" data-name="Path 2041" d="M71.9,0C-308.68,452.423,938.965,344.739,1074.979,738.67c47.48,137.514,23.9,360.087-151.688,372.686-273.948,19.654-214.152-353.57-8.084-313.533" transform="translate(861.931 434.303)" fill="none" stroke="#8eb7cc" stroke-miterlimit="10" stroke-width="0.427"/>
        <path id="Path_2042" data-name="Path 2042" d="M72.067,0c-380.583,452.423,863.608,340.869,999.623,734.8,47.48,137.512,23.9,360.087-151.688,372.684-273.948,19.654-214.151-353.57-8.083-313.533" transform="translate(851.941 420.986)" fill="none" stroke="#8eb7cc" stroke-miterlimit="10" stroke-width="0.424"/>
        <path id="Path_2043" data-name="Path 2043" d="M72.231,0C-308.352,452.423,932.384,337,1068.4,730.932c47.48,137.512,23.9,360.088-151.688,372.686-273.948,19.654-214.151-353.57-8.083-313.533" transform="translate(841.64 408.851)" fill="none" stroke="#8eb7cc" stroke-miterlimit="10" stroke-width="0.422"/>
        <path id="Path_2044" data-name="Path 2044" d="M72.4,0C-308.187,452.423,929.1,333.133,1065.11,727.064c47.48,137.514,23.9,360.087-151.688,372.686-273.948,19.654-214.152-353.57-8.084-313.533" transform="translate(831.029 397.845)" fill="none" stroke="#8eb7cc" stroke-miterlimit="10" stroke-width="0.42"/>
        <path id="Path_2045" data-name="Path 2045" d="M72.562,0c-380.583,452.423,853.244,329.263,989.26,723.194,47.48,137.512,23.9,360.087-151.688,372.684-273.948,19.654-214.151-353.57-8.083-313.533" transform="translate(820.111 387.986)" fill="none" stroke="#8eb7cc" stroke-miterlimit="10" stroke-width="0.418"/>
        <path id="Path_2046" data-name="Path 2046" d="M72.729,0c-380.583,452.423,849.79,325.4,985.807,719.326,47.48,137.514,23.9,360.087-151.688,372.686C632.9,1111.667,692.7,738.443,898.764,778.479" transform="translate(808.887 379.237)" fill="none" stroke="#8eb7cc" stroke-miterlimit="10" stroke-width="0.415"/>
        <path id="Path_2047" data-name="Path 2047" d="M72.9,0c-380.583,452.423,846.337,321.527,982.351,715.458,47.48,137.514,23.9,360.087-151.688,372.686-273.948,19.654-214.151-353.57-8.084-313.533" transform="translate(797.356 371.565)" fill="none" stroke="#8eb7cc" stroke-miterlimit="10" stroke-width="0.413"/>
        <path id="Path_2048" data-name="Path 2048" d="M73.064,0c-380.583,452.423,842.882,317.657,978.9,711.589,47.48,137.514,23.9,360.087-151.688,372.686-273.948,19.654-214.151-353.57-8.084-313.533" transform="translate(785.52 364.933)" fill="none" stroke="#8eb7cc" stroke-miterlimit="10" stroke-width="0.411"/>
        <path id="Path_2049" data-name="Path 2049" d="M73.233,0C-307.35,452.423,912.661,313.789,1048.677,707.721c47.48,137.514,23.9,360.087-151.688,372.686-273.948,19.654-214.151-353.57-8.083-313.533" transform="translate(773.382 359.341)" fill="none" stroke="#8eb7cc" stroke-miterlimit="10" stroke-width="0.409"/>
        <path id="Path_2050" data-name="Path 2050" d="M73.4,0C-307.18,452.423,909.375,309.921,1045.391,703.851c47.48,137.514,23.9,360.087-151.688,372.686C619.756,1096.191,679.552,722.967,885.62,763" transform="translate(760.94 354.755)" fill="none" stroke="#8eb7cc" stroke-miterlimit="10" stroke-width="0.407"/>
        <path id="Path_2051" data-name="Path 2051" d="M73.573,0C-307.01,452.423,906.092,306.051,1042.107,699.983c47.48,137.514,23.9,360.088-151.688,372.686-273.948,19.654-214.151-353.57-8.083-313.533" transform="translate(748.197 351.157)" fill="none" stroke="#8eb7cc" stroke-miterlimit="10" stroke-width="0.404"/>
        <path id="Path_2052" data-name="Path 2052" d="M73.744,0c-380.583,452.423,829.065,302.183,965.08,696.115,47.48,137.512,23.9,360.087-151.688,372.686-273.948,19.654-214.151-353.57-8.084-313.533" transform="translate(735.153 348.511)" fill="none" stroke="#8eb7cc" stroke-miterlimit="10" stroke-width="0.402"/>
        <path id="Path_2053" data-name="Path 2053" d="M73.916,0c-380.583,452.423,825.61,298.313,961.626,692.247,47.48,137.512,23.9,360.087-151.688,372.684C609.907,1084.585,669.7,711.361,875.771,751.4" transform="translate(721.809 346.801)" fill="none" stroke="#8eb7cc" stroke-miterlimit="10" stroke-width="0.4"/>
        <path id="Path_2054" data-name="Path 2054" d="M74.089,0c-380.583,452.423,822.157,294.445,958.173,688.377,47.48,137.514,23.9,360.087-151.688,372.686-273.948,19.654-214.151-353.57-8.084-313.533" transform="translate(708.168 345.989)" fill="none" stroke="#8eb7cc" stroke-miterlimit="10" stroke-width="0.398"/>
        <path id="Path_2055" data-name="Path 2055" d="M74.263,0c-380.583,452.428,818.7,290.583,954.709,684.514,47.48,137.514,23.9,360.087-151.688,372.686-273.948,19.654-214.151-353.57-8.083-313.533" transform="translate(694.229 346.06)" fill="none" stroke="#8eb7cc" stroke-miterlimit="10" stroke-width="0.395"/>
        <path id="Path_2056" data-name="Path 2056" d="M74.437,0C-306.146,452.423,889.685,286.708,1025.7,680.641c47.48,137.512,23.9,360.088-151.688,372.686-273.948,19.654-214.151-353.57-8.083-313.533" transform="translate(679.994 346.995)" fill="none" stroke="#8eb7cc" stroke-miterlimit="10" stroke-width="0.393"/>
        <path id="Path_2057" data-name="Path 2057" d="M74.612,0C-305.97,452.423,886.405,282.839,1022.421,676.771c47.48,137.514,23.9,360.087-151.688,372.686-273.948,19.654-214.151-353.57-8.084-313.533" transform="translate(665.463 348.776)" fill="none" stroke="#8eb7cc" stroke-miterlimit="10" stroke-width="0.391"/>
        <path id="Path_2058" data-name="Path 2058" d="M74.789,0c-380.583,452.423,808.339,278.971,944.355,672.9,47.48,137.512,23.9,360.087-151.688,372.684-273.948,19.656-214.151-353.57-8.083-313.533" transform="translate(650.638 351.351)" fill="none" stroke="#8eb7cc" stroke-miterlimit="10" stroke-width="0.389"/>
        <path id="Path_2059" data-name="Path 2059" d="M74.965,0c-380.583,452.423,804.886,275.1,940.9,669.033,47.48,137.512,23.9,360.087-151.688,372.685-273.948,19.656-214.151-353.57-8.084-313.533" transform="translate(635.52 354.702)" fill="none" stroke="#8eb7cc" stroke-miterlimit="10" stroke-width="0.387"/>
        <path id="Path_2060" data-name="Path 2060" d="M75.143,0C-305.44,452.423,876.573,271.234,1012.59,665.165c47.48,137.514,23.9,360.087-151.688,372.686-273.948,19.654-214.151-353.57-8.084-313.533" transform="translate(620.112 358.83)" fill="none" stroke="#8eb7cc" stroke-miterlimit="10" stroke-width="0.384"/>
        <path id="Path_2061" data-name="Path 2061" d="M75.322,0C-305.261,452.423,873.3,267.366,1009.313,661.3c47.48,137.512,23.9,360.087-151.688,372.685-273.948,19.656-214.151-353.57-8.084-313.533" transform="translate(604.41 363.68)" fill="none" stroke="#8eb7cc" stroke-miterlimit="10" stroke-width="0.382"/>
        <path id="Path_2062" data-name="Path 2062" d="M75.5,0c-380.583,452.423,794.523,263.5,930.538,657.429,47.48,137.512,23.9,360.087-151.688,372.685C580.4,1049.77,640.2,676.543,846.267,716.58" transform="translate(588.42 369.254)" fill="none" stroke="#8eb7cc" stroke-miterlimit="10" stroke-width="0.38"/>
        <path id="Path_2063" data-name="Path 2063" d="M75.681,0C-304.9,452.423,866.749,259.628,1002.766,653.559c47.48,137.512,23.9,360.087-151.688,372.686-273.948,19.654-214.151-353.57-8.083-313.533" transform="translate(572.141 375.515)" fill="none" stroke="#8eb7cc" stroke-miterlimit="10" stroke-width="0.377"/>
        <path id="Path_2064" data-name="Path 2064" d="M75.863,0C-304.72,452.423,863.477,255.76,999.491,649.691c47.48,137.512,23.9,360.087-151.688,372.684-273.948,19.656-214.151-353.57-8.083-313.533" transform="translate(555.574 382.43)" fill="none" stroke="#8eb7cc" stroke-miterlimit="10" stroke-width="0.375"/>
        <path id="Path_2065" data-name="Path 2065" d="M76.045,0C-304.538,452.423,860.2,251.89,996.22,645.822c47.48,137.512,23.9,360.087-151.688,372.686-273.948,19.654-214.151-353.57-8.084-313.533" transform="translate(538.719 389.996)" fill="none" stroke="#8eb7cc" stroke-miterlimit="10" stroke-width="0.373"/>
        <path id="Path_2066" data-name="Path 2066" d="M76.227,0C-304.355,452.418,856.933,248.017,992.944,641.948c47.48,137.514,23.9,360.087-151.688,372.686C567.308,1034.289,627.1,661.064,833.172,701.1" transform="translate(521.581 398.163)" fill="none" stroke="#8eb7cc" stroke-miterlimit="10" stroke-width="0.371"/>
        <path id="Path_2067" data-name="Path 2067" d="M76.411,0C-304.172,452.423,853.663,244.154,989.678,638.085c47.48,137.512,23.9,360.087-151.688,372.686-273.948,19.654-214.151-353.57-8.084-313.533" transform="translate(504.156 406.911)" fill="none" stroke="#8eb7cc" stroke-miterlimit="10" stroke-width="0.369"/>
        <path id="Path_2068" data-name="Path 2068" d="M76.6,0c-380.583,452.423,773.8,240.284,909.813,634.215,47.48,137.512,23.9,360.087-151.688,372.684-273.948,19.656-214.151-353.57-8.083-313.533" transform="translate(486.449 416.242)" fill="none" stroke="#8eb7cc" stroke-miterlimit="10" stroke-width="0.366"/>
        <path id="Path_2069" data-name="Path 2069" d="M76.781,0C-303.8,452.423,847.124,236.416,983.139,630.348c47.48,137.514,23.9,360.087-151.688,372.686C557.5,1022.688,617.3,649.464,823.367,689.5" transform="translate(468.458 426.102)" fill="none" stroke="#8eb7cc" stroke-miterlimit="10" stroke-width="0.364"/>
        <path id="Path_2070" data-name="Path 2070" d="M76.968,0c-380.583,452.423,766.888,232.548,902.9,626.479,47.48,137.514,23.9,360.087-151.688,372.686C554.236,1018.82,614.032,645.6,820.1,685.632" transform="translate(450.187 436.473)" fill="none" stroke="#8eb7cc" stroke-miterlimit="10" stroke-width="0.362"/>
        <path id="Path_2071" data-name="Path 2071" d="M77.155,0C-303.428,452.423,840.589,228.678,976.6,622.61c47.48,137.514,23.9,360.087-151.688,372.686-273.948,19.654-214.151-353.57-8.084-313.533" transform="translate(431.635 447.333)" fill="none" stroke="#8eb7cc" stroke-miterlimit="10" stroke-width="0.36"/>
        <path id="Path_2072" data-name="Path 2072" d="M77.344,0c-380.585,452.423,759.979,224.81,896,618.742,47.48,137.512,23.9,360.087-151.688,372.684C547.7,1011.082,607.5,637.856,813.567,677.893" transform="translate(412.805 458.662)" fill="none" stroke="#8eb7cc" stroke-miterlimit="10" stroke-width="0.357"/>
        <path id="Path_2073" data-name="Path 2073" d="M77.532,0C-303.051,452.423,834.057,220.942,970.074,614.872c47.48,137.514,23.9,360.087-151.688,372.686-273.948,19.654-214.151-353.57-8.083-313.533" transform="translate(393.696 470.431)" fill="none" stroke="#8eb7cc" stroke-miterlimit="10" stroke-width="0.355"/>
        <path id="Path_2074" data-name="Path 2074" d="M77.722,0C-302.861,452.423,830.794,217.072,966.808,611c47.48,137.512,23.9,360.087-151.688,372.684-273.948,19.656-214.151-353.57-8.084-313.533" transform="translate(374.309 482.617)" fill="none" stroke="#8eb7cc" stroke-miterlimit="10" stroke-width="0.353"/>
        <path id="Path_2075" data-name="Path 2075" d="M77.913,0C-302.67,452.421,827.53,213.2,963.546,607.134c47.48,137.514,23.9,360.087-151.688,372.686-273.948,19.654-214.151-353.57-8.084-313.533" transform="translate(354.647 495.197)" fill="none" stroke="#8eb7cc" stroke-miterlimit="10" stroke-width="0.351"/>
        <path id="Path_2076" data-name="Path 2076" d="M78.1,0C-302.478,452.423,824.268,209.336,960.282,603.268c47.48,137.512,23.9,360.087-151.688,372.686-273.948,19.654-214.151-353.57-8.083-313.533" transform="translate(334.709 508.142)" fill="none" stroke="#8eb7cc" stroke-miterlimit="10" stroke-width="0.349"/>
        <path id="Path_2077" data-name="Path 2077" d="M78.3,0C-302.285,452.423,821.005,205.466,957.022,599.4c47.48,137.514,23.9,360.087-151.688,372.686-273.948,19.654-214.151-353.57-8.083-313.533" transform="translate(314.499 521.43)" fill="none" stroke="#8eb7cc" stroke-miterlimit="10" stroke-width="0.346"/>
        <path id="Path_2078" data-name="Path 2078" d="M78.492,0c-380.583,452.423,739.254,201.6,875.27,595.53,47.48,137.514,23.9,360.087-151.688,372.686-273.948,19.654-214.151-353.57-8.083-313.533" transform="translate(294.348 534.736)" fill="none" stroke="#8eb7cc" stroke-miterlimit="10" stroke-width="0.344"/>
        <path id="Path_2079" data-name="Path 2079" d="M78.686,0C-301.9,452.423,814.485,197.73,950.5,591.662c47.48,137.514,23.9,360.087-151.688,372.686C524.866,984,584.662,610.778,790.73,650.815" transform="translate(276.303 545.748)" fill="none" stroke="#8eb7cc" stroke-miterlimit="10" stroke-width="0.342"/>
        <path id="Path_2080" data-name="Path 2080" d="M78.882,0C-301.7,452.423,811.228,193.861,947.242,587.792c47.48,137.512,23.9,360.087-151.688,372.686-273.948,19.654-214.151-353.57-8.084-313.533" transform="translate(260.474 554.087)" fill="none" stroke="#8eb7cc" stroke-miterlimit="10" stroke-width="0.34"/>
        <path id="Path_2081" data-name="Path 2081" d="M79.078,0C-301.5,452.421,807.97,189.991,943.987,583.922c47.48,137.514,23.9,360.087-151.688,372.686-273.948,19.654-214.151-353.57-8.083-313.533" transform="translate(246.637 559.865)" fill="none" stroke="#8eb7cc" stroke-miterlimit="10" stroke-width="0.337"/>
        <path id="Path_2082" data-name="Path 2082" d="M79.276,0C-301.307,452.423,804.714,186.123,940.729,580.056c47.48,137.512,23.9,360.087-151.688,372.686C515.093,972.4,574.89,599.172,780.957,639.209" transform="translate(234.569 563.19)" fill="none" stroke="#8eb7cc" stroke-miterlimit="10" stroke-width="0.335"/>
        <path id="Path_2083" data-name="Path 2083" d="M79.475,0c-380.583,452.423,721.983,182.255,858,576.186,47.48,137.512,23.9,360.087-151.688,372.686C511.836,968.527,571.633,595.3,777.7,635.339" transform="translate(224.043 564.174)" fill="none" stroke="#8eb7cc" stroke-miterlimit="10" stroke-width="0.333"/>
        <path id="Path_2084" data-name="Path 2084" d="M79.674,0C-300.909,452.423,798.2,178.387,934.218,572.318,981.7,709.832,958.116,932.405,782.53,945c-273.948,19.654-214.151-353.57-8.083-313.533" transform="translate(214.836 562.927)" fill="none" stroke="#8eb7cc" stroke-miterlimit="10" stroke-width="0.331"/>
        <path id="Path_2085" data-name="Path 2085" d="M79.875,0C-300.709,452.423,794.949,174.518,930.964,568.45c47.48,137.512,23.9,360.087-151.688,372.684C505.328,960.79,565.125,587.564,771.193,627.6" transform="translate(206.724 559.56)" fill="none" stroke="#8eb7cc" stroke-miterlimit="10" stroke-width="0.328"/>
        <path id="Path_2086" data-name="Path 2086" d="M80.076,0C-300.506,452.423,791.7,170.649,927.713,564.58c47.48,137.512,23.9,360.087-151.688,372.684-273.948,19.654-214.151-353.57-8.084-313.533" transform="translate(199.482 554.182)" fill="none" stroke="#8eb7cc" stroke-miterlimit="10" stroke-width="0.326"/>
        <path id="Path_2087" data-name="Path 2087" d="M80.279,0C-300.3,452.423,788.446,166.779,924.46,560.712,971.94,698.224,948.358,920.8,772.773,933.4c-273.948,19.654-214.151-353.57-8.084-313.533" transform="translate(192.886 546.907)" fill="none" stroke="#8eb7cc" stroke-miterlimit="10" stroke-width="0.324"/>
        <path id="Path_2088" data-name="Path 2088" d="M80.482,0C-300.1,452.423,785.194,162.913,921.21,556.844c47.48,137.512,23.9,360.087-151.688,372.686C495.574,949.185,555.371,575.96,761.439,616" transform="translate(186.712 537.839)" fill="none" stroke="#8eb7cc" stroke-miterlimit="10" stroke-width="0.322"/>
        <path id="Path_2089" data-name="Path 2089" d="M80.687,0C-299.9,452.423,781.945,159.043,917.96,552.974c47.48,137.512,23.9,360.087-151.688,372.684-273.948,19.654-214.151-353.57-8.083-313.533" transform="translate(180.736 527.094)" fill="none" stroke="#8eb7cc" stroke-miterlimit="10" stroke-width="0.319"/>
        <path id="Path_2090" data-name="Path 2090" d="M80.893,0C-299.69,452.423,778.7,155.175,914.712,549.106c47.48,137.512,23.9,360.087-151.688,372.685-273.948,19.654-214.151-353.57-8.083-313.533" transform="translate(174.732 514.779)" fill="none" stroke="#8eb7cc" stroke-miterlimit="10" stroke-width="0.317"/>
        <path id="Path_2091" data-name="Path 2091" d="M81.1,0C-299.484,452.423,775.448,151.305,911.464,545.237c47.48,137.512,23.9,360.087-151.688,372.686-273.948,19.654-214.151-353.57-8.084-313.533" transform="translate(168.479 501.007)" fill="none" stroke="#8eb7cc" stroke-miterlimit="10" stroke-width="0.315"/>
        <path id="Path_2092" data-name="Path 2092" d="M81.307,0C-299.276,452.423,772.2,147.437,908.217,541.369c47.48,137.512,23.9,360.087-151.688,372.685-273.948,19.654-214.151-353.57-8.083-313.533" transform="translate(161.749 485.886)" fill="none" stroke="#8eb7cc" stroke-miterlimit="10" stroke-width="0.313"/>
        <path id="Path_2093" data-name="Path 2093" d="M81.516,0c-380.583,452.423,687.44,143.569,823.457,537.5,47.48,137.512,23.9,360.087-151.688,372.685-273.948,19.656-214.152-353.57-8.084-313.533" transform="translate(154.319 469.528)" fill="none" stroke="#8eb7cc" stroke-miterlimit="10" stroke-width="0.31"/>
        <path id="Path_2094" data-name="Path 2094" d="M81.726,0c-380.583,452.423,683.987,139.7,820,533.631,47.48,137.512,23.9,360.087-151.688,372.684-273.948,19.654-214.151-353.57-8.083-313.533" transform="translate(145.966 452.042)" fill="none" stroke="#8eb7cc" stroke-miterlimit="10" stroke-width="0.308"/>
        <path id="Path_2095" data-name="Path 2095" d="M81.937,0C-298.646,452.423,762.468,135.831,898.485,529.762c47.48,137.512,23.9,360.087-151.688,372.684-273.948,19.654-214.151-353.57-8.084-313.533" transform="translate(136.465 433.545)" fill="none" stroke="#8eb7cc" stroke-miterlimit="10" stroke-width="0.306"/>
        <path id="Path_2096" data-name="Path 2096" d="M82.149,0C-298.434,452.428,759.227,131.969,895.241,525.9c47.48,137.512,23.9,360.087-151.688,372.684C469.605,918.239,529.4,545.014,735.47,585.051" transform="translate(125.591 414.125)" fill="none" stroke="#8eb7cc" stroke-miterlimit="10" stroke-width="0.304"/>
        <path id="Path_2097" data-name="Path 2097" d="M82.362,0C-298.221,452.418,755.984,128.09,892,522.021c47.48,137.512,23.9,360.088-151.688,372.686-273.948,19.654-214.151-353.57-8.084-313.533" transform="translate(113.119 393.93)" fill="none" stroke="#8eb7cc" stroke-miterlimit="10" stroke-width="0.301"/>
        <path id="Path_2098" data-name="Path 2098" d="M82.576,0C-298.007,452.423,752.745,124.225,888.762,518.157c47.48,137.512,23.9,360.087-151.688,372.686C463.126,910.5,522.922,537.273,728.99,577.31" transform="translate(98.826 373.029)" fill="none" stroke="#8eb7cc" stroke-miterlimit="10" stroke-width="0.299"/>
        <path id="Path_2099" data-name="Path 2099" d="M82.791,0c-380.583,452.428,666.715,120.363,802.73,514.294,47.48,137.512,23.9,360.087-151.688,372.685-273.948,19.656-214.151-353.57-8.083-313.533" transform="translate(82.49 351.563)" fill="none" stroke="#8eb7cc" stroke-miterlimit="10" stroke-width="0.297"/>
        <path id="Path_2100" data-name="Path 2100" d="M83.008,0c-380.583,452.421,663.26,116.487,799.277,510.419,47.48,137.512,23.9,360.087-151.688,372.685-273.948,19.656-214.151-353.57-8.084-313.533" transform="translate(63.882 329.639)" fill="none" stroke="#8eb7cc" stroke-miterlimit="10" stroke-width="0.295"/>
        <path id="Path_2101" data-name="Path 2101" d="M83.225,0C-297.358,452.423,743.032,112.62,879.047,506.551c47.48,137.512,23.9,360.087-151.688,372.685-273.948,19.656-214.151-353.57-8.084-313.533" transform="translate(42.781 307.362)" fill="none" stroke="#8eb7cc" stroke-miterlimit="10" stroke-width="0.293"/>
        <path id="Path_2102" data-name="Path 2102" d="M83.444,0C-297.139,452.43,739.8,108.757,875.812,502.688c47.48,137.512,23.9,360.088-151.688,372.685C450.176,895.027,509.972,521.8,716.04,561.839" transform="translate(22.303 286.549)" fill="none" stroke="#8eb7cc" stroke-miterlimit="10" stroke-width="0.29"/>
        <path id="Path_2103" data-name="Path 2103" d="M83.664,0c-380.583,452.423,652.9,104.882,788.914,498.813C920.058,636.325,896.476,858.9,720.89,871.5c-273.948,19.654-214.151-353.57-8.084-313.533" transform="translate(8.893 267.852)" fill="none" stroke="#8eb7cc" stroke-miterlimit="10" stroke-width="0.288"/>
        <path id="Path_2104" data-name="Path 2104" d="M83.885,0C-296.7,452.423,733.327,101.014,869.344,494.945c47.48,137.512,23.9,360.087-151.688,372.684C443.708,887.284,503.5,514.059,709.572,554.1" transform="translate(1.686 250.32)" fill="none" stroke="#8eb7cc" stroke-miterlimit="10" stroke-width="0.286"/>
        <path id="Path_2105" data-name="Path 2105" d="M84.107,0C-296.476,452.416,730.1,97.133,866.112,491.068c47.48,137.514,23.9,360.087-151.688,372.686-273.948,19.654-214.151-353.57-8.084-313.533" transform="translate(0 233.846)" fill="none" stroke="#8eb7cc" stroke-miterlimit="10" stroke-width="0.284"/>
        <path id="Path_2106" data-name="Path 2106" d="M84.331,0c-380.585,452.419,642.534,93.27,778.55,487.2,47.48,137.514,23.9,360.087-151.688,372.686-273.948,19.654-214.151-353.57-8.084-313.533" transform="translate(3.154 218.325)" fill="none" stroke="#8eb7cc" stroke-miterlimit="10" stroke-width="0.281"/>
        <path id="Path_2107" data-name="Path 2107" d="M84.555,0c-380.583,452.423,639.08,89.407,775.1,483.339,47.48,137.514,23.9,360.087-151.688,372.686-273.948,19.654-214.151-353.57-8.084-313.533" transform="translate(10.467 203.65)" fill="none" stroke="#8eb7cc" stroke-miterlimit="10" stroke-width="0.279"/>
        <path id="Path_2108" data-name="Path 2108" d="M84.78,0C-295.8,452.428,720.406,85.545,856.423,479.475c47.48,137.512,23.9,360.088-151.688,372.685-273.948,19.656-214.151-353.57-8.084-313.533" transform="translate(21.258 189.733)" fill="none" stroke="#8eb7cc" stroke-miterlimit="10" stroke-width="0.277"/>
        <path id="Path_2109" data-name="Path 2109" d="M85.007,0C-295.576,452.423,717.178,81.67,853.195,475.6c47.48,137.514,23.9,360.087-151.688,372.686-273.948,19.651-214.151-353.574-8.084-313.537" transform="translate(34.849 176.469)" fill="none" stroke="#8eb7cc" stroke-miterlimit="10" stroke-width="0.275"/>
        <path id="Path_2110" data-name="Path 2110" d="M85.235,0C-295.348,452.423,713.953,77.8,849.969,471.731c47.48,137.514,23.9,360.087-151.688,372.686C424.333,864.072,484.13,490.848,690.2,530.885" transform="translate(50.555 163.735)" fill="none" stroke="#8eb7cc" stroke-miterlimit="10" stroke-width="0.273"/>
        <path id="Path_2111" data-name="Path 2111" d="M85.464,0C-295.119,452.423,710.728,73.932,846.743,467.863c47.48,137.512,23.9,360.088-151.688,372.685C421.107,860.2,480.9,486.978,686.971,527.014" transform="translate(67.699 151.441)" fill="none" stroke="#8eb7cc" stroke-miterlimit="10" stroke-width="0.27"/>
        <path id="Path_2112" data-name="Path 2112" d="M85.695,0C-294.888,452.416,707.505,70.058,843.52,463.988,891,601.5,867.418,824.076,691.832,836.673,417.884,856.329,477.68,483.1,683.748,523.139" transform="translate(85.597 139.482)" fill="none" stroke="#8eb7cc" stroke-miterlimit="10" stroke-width="0.268"/>
        <path id="Path_2113" data-name="Path 2113" d="M85.926,0C-294.657,452.429,704.282,66.2,840.3,460.131c47.48,137.512,23.9,360.087-151.688,372.686-273.948,19.654-214.151-353.57-8.084-313.533" transform="translate(103.572 127.735)" fill="none" stroke="#8eb7cc" stroke-miterlimit="10" stroke-width="0.266"/>
        <path id="Path_2114" data-name="Path 2114" d="M86.159,0c-380.583,452.423,614.9,62.326,750.916,456.257,47.48,137.512,23.9,360.087-151.688,372.686C411.44,848.6,471.236,475.374,677.3,515.41" transform="translate(120.94 116.129)" fill="none" stroke="#8eb7cc" stroke-miterlimit="10" stroke-width="0.264"/>
        <path id="Path_2115" data-name="Path 2115" d="M86.393,0C-294.189,452.418,697.84,58.453,833.856,452.384c47.48,137.514,23.9,360.088-151.688,372.686C408.22,844.725,468.017,471.5,674.085,511.537" transform="translate(137.021 104.541)" fill="none" stroke="#8eb7cc" stroke-miterlimit="10" stroke-width="0.261"/>
        <path id="Path_2116" data-name="Path 2116" d="M86.629,0C-293.954,452.423,694.622,54.588,830.636,448.52c47.48,137.514,23.9,360.088-151.688,372.686C405,840.86,464.8,467.636,670.865,507.673" transform="translate(151.136 92.865)" fill="none" stroke="#8eb7cc" stroke-miterlimit="10" stroke-width="0.259"/>
        <path id="Path_2117" data-name="Path 2117" d="M86.866,0C-293.717,452.423,691.4,50.72,827.42,444.652c47.48,137.512,23.9,360.088-151.688,372.686C401.784,836.992,461.58,463.768,667.648,503.8" transform="translate(162.602 80.994)" fill="none" stroke="#8eb7cc" stroke-miterlimit="10" stroke-width="0.257"/>
        <path id="Path_2118" data-name="Path 2118" d="M87.1,0C-293.479,452.423,688.188,46.852,824.2,440.784,871.684,578.3,848.1,800.871,672.516,813.47c-273.948,19.654-214.151-353.57-8.083-313.533" transform="translate(170.739 68.841)" fill="none" stroke="#8eb7cc" stroke-miterlimit="10" stroke-width="0.255"/>
        <path id="Path_2119" data-name="Path 2119" d="M87.343,0C-293.24,452.423,684.972,42.984,820.988,436.914,868.468,574.428,844.886,797,669.3,809.6c-273.948,19.654-214.151-353.57-8.084-313.533" transform="translate(174.867 56.283)" fill="none" stroke="#8eb7cc" stroke-miterlimit="10" stroke-width="0.252"/>
        <path id="Path_2120" data-name="Path 2120" d="M87.583,0C-293,452.423,681.759,39.114,817.775,433.046c47.48,137.514,23.9,360.087-151.688,372.686C392.139,825.386,451.936,452.162,658,492.2" transform="translate(174.303 43.213)" fill="none" stroke="#8eb7cc" stroke-miterlimit="10" stroke-width="0.25"/>
        <path id="Path_2121" data-name="Path 2121" d="M87.825,0C-292.758,452.423,678.547,35.246,814.562,429.178c47.48,137.512,23.9,360.087-151.688,372.685-273.948,19.656-214.151-353.57-8.084-313.533" transform="translate(168.368 29.562)" fill="none" stroke="#8eb7cc" stroke-miterlimit="10" stroke-width="0.248"/>
        <path id="Path_2122" data-name="Path 2122" d="M88.069,0C-292.514,452.423,675.335,31.376,811.351,425.308c47.48,137.514,23.9,360.087-151.688,372.686-273.948,19.654-214.151-353.57-8.084-313.533" transform="translate(156.383 15.187)" fill="none" stroke="#8eb7cc" stroke-miterlimit="10" stroke-width="0.246"/>
        <path id="Path_2123" data-name="Path 2123" d="M88.313,0C-292.27,452.423,672.126,27.508,808.142,421.44c47.48,137.512,23.9,360.088-151.688,372.685-273.948,19.654-214.151-353.57-8.083-313.533" transform="translate(137.662 0)" fill="none" stroke="#8eb7cc" stroke-miterlimit="10" stroke-width="0.243"/>
      </g>
      <g id="Group_2087" data-name="Group 2087" transform="translate(0 0)">
        <path id="Path_2124" data-name="Path 2124" d="M70.463,0C-310.12,452.423,968.613,379.556,1104.628,773.488c47.48,137.512,23.9,360.087-151.688,372.685-273.948,19.656-214.151-353.57-8.083-313.533" transform="translate(937.72 611.251)" fill="none" stroke="#8eb7cc" stroke-miterlimit="10" stroke-width="0.122"/>
        <path id="Path_2125" data-name="Path 2125" d="M70.62,0c-380.583,452.423,894.7,375.688,1030.712,769.62,47.48,137.512,23.9,360.087-151.688,372.686-273.948,19.654-214.151-353.57-8.083-313.533" transform="translate(930.568 586.224)" fill="none" stroke="#8eb7cc" stroke-miterlimit="10" stroke-width="0.123"/>
        <path id="Path_2126" data-name="Path 2126" d="M70.778,0C-309.8,452.423,962.02,371.819,1098.036,765.75c47.48,137.512,23.9,360.087-151.688,372.685C672.4,1158.091,732.2,784.865,938.265,824.9" transform="translate(923.096 562.596)" fill="none" stroke="#8eb7cc" stroke-miterlimit="10" stroke-width="0.124"/>
        <path id="Path_2127" data-name="Path 2127" d="M70.937,0C-309.646,452.423,958.72,367.952,1094.745,761.882c47.48,137.512,23.9,360.087-151.688,372.686C669.109,1154.223,728.905,781,934.973,821.035" transform="translate(915.305 540.34)" fill="none" stroke="#8eb7cc" stroke-miterlimit="10" stroke-width="0.126"/>
        <path id="Path_2128" data-name="Path 2128" d="M71.1,0C-309.487,452.423,955.429,364.083,1091.445,758.012c47.48,137.514,23.9,360.087-151.688,372.686-273.948,19.654-214.151-353.57-8.083-313.533" transform="translate(907.196 519.437)" fill="none" stroke="#8eb7cc" stroke-miterlimit="10" stroke-width="0.127"/>
        <path id="Path_2129" data-name="Path 2129" d="M71.256,0C-309.327,452.423,952.133,360.213,1088.15,754.144c47.48,137.512,23.9,360.087-151.688,372.686-273.948,19.654-214.151-353.57-8.083-313.533" transform="translate(898.773 499.859)" fill="none" stroke="#8eb7cc" stroke-miterlimit="10" stroke-width="0.128"/>
        <path id="Path_2130" data-name="Path 2130" d="M71.417,0c-380.583,452.423,877.424,356.345,1013.44,750.276,47.48,137.512,23.9,360.087-151.688,372.684-273.948,19.656-214.151-353.57-8.083-313.533" transform="translate(890.033 481.581)" fill="none" stroke="#8eb7cc" stroke-miterlimit="10" stroke-width="0.13"/>
        <path id="Path_2131" data-name="Path 2131" d="M71.578,0C-309,452.423,945.548,352.475,1081.565,746.406c47.48,137.514,23.9,360.087-151.688,372.686-273.948,19.654-214.151-353.57-8.083-313.533" transform="translate(880.978 464.579)" fill="none" stroke="#8eb7cc" stroke-miterlimit="10" stroke-width="0.131"/>
        <path id="Path_2132" data-name="Path 2132" d="M71.74,0C-308.843,452.423,942.255,348.607,1078.272,742.538c47.48,137.514,23.9,360.087-151.688,372.686-273.948,19.654-214.151-353.57-8.083-313.533" transform="translate(871.611 448.829)" fill="none" stroke="#8eb7cc" stroke-miterlimit="10" stroke-width="0.132"/>
        <path id="Path_2133" data-name="Path 2133" d="M71.9,0C-308.68,452.423,938.965,344.739,1074.981,738.67c47.48,137.512,23.9,360.087-151.688,372.686-273.948,19.654-214.152-353.57-8.083-313.533" transform="translate(861.931 434.304)" fill="none" stroke="#8eb7cc" stroke-miterlimit="10" stroke-width="0.134"/>
        <path id="Path_2134" data-name="Path 2134" d="M72.067,0c-380.583,452.423,863.606,340.871,999.622,734.8,47.48,137.514,23.9,360.087-151.688,372.686-273.948,19.654-214.151-353.57-8.084-313.533" transform="translate(851.941 420.987)" fill="none" stroke="#8eb7cc" stroke-miterlimit="10" stroke-width="0.135"/>
        <path id="Path_2135" data-name="Path 2135" d="M72.231,0C-308.352,452.423,932.384,337,1068.4,730.932c47.48,137.512,23.9,360.087-151.688,372.684-273.948,19.656-214.152-353.57-8.084-313.533" transform="translate(841.64 408.852)" fill="none" stroke="#8eb7cc" stroke-miterlimit="10" stroke-width="0.136"/>
        <path id="Path_2136" data-name="Path 2136" d="M72.4,0C-308.187,452.423,929.1,333.133,1065.11,727.064c47.48,137.512,23.9,360.088-151.688,372.686-273.948,19.654-214.151-353.57-8.083-313.533" transform="translate(831.029 397.846)" fill="none" stroke="#8eb7cc" stroke-miterlimit="10" stroke-width="0.138"/>
        <path id="Path_2137" data-name="Path 2137" d="M72.562,0c-380.583,452.423,853.244,329.265,989.26,723.2,47.48,137.512,23.9,360.087-151.688,372.684-273.948,19.656-214.152-353.568-8.084-313.533" transform="translate(820.111 387.986)" fill="none" stroke="#8eb7cc" stroke-miterlimit="10" stroke-width="0.139"/>
        <path id="Path_2138" data-name="Path 2138" d="M72.729,0c-380.583,452.423,849.79,325.4,985.806,719.327,47.48,137.512,23.9,360.087-151.688,372.686C632.9,1111.667,692.7,738.443,898.764,778.479" transform="translate(808.887 379.237)" fill="none" stroke="#8eb7cc" stroke-miterlimit="10" stroke-width="0.14"/>
        <path id="Path_2139" data-name="Path 2139" d="M72.9,0c-380.583,452.423,846.335,321.527,982.351,715.458,47.48,137.512,23.9,360.088-151.688,372.686-273.948,19.654-214.151-353.57-8.084-313.533" transform="translate(797.356 371.565)" fill="none" stroke="#8eb7cc" stroke-miterlimit="10" stroke-width="0.142"/>
        <path id="Path_2140" data-name="Path 2140" d="M73.064,0c-380.583,452.423,842.882,317.657,978.9,711.589,47.48,137.512,23.9,360.087-151.688,372.686-273.948,19.654-214.151-353.57-8.083-313.533" transform="translate(785.52 364.933)" fill="none" stroke="#8eb7cc" stroke-miterlimit="10" stroke-width="0.143"/>
        <path id="Path_2141" data-name="Path 2141" d="M73.233,0C-307.35,452.423,912.661,313.789,1048.675,707.72c47.48,137.512,23.9,360.087-151.688,372.686-273.948,19.654-214.151-353.57-8.084-313.533" transform="translate(773.382 359.342)" fill="none" stroke="#8eb7cc" stroke-miterlimit="10" stroke-width="0.145"/>
        <path id="Path_2142" data-name="Path 2142" d="M73.4,0C-307.18,452.423,909.375,309.921,1045.391,703.853c47.48,137.512,23.9,360.087-151.688,372.686-273.948,19.654-214.151-353.57-8.083-313.533" transform="translate(760.94 354.756)" fill="none" stroke="#8eb7cc" stroke-miterlimit="10" stroke-width="0.146"/>
        <path id="Path_2143" data-name="Path 2143" d="M73.573,0C-307.01,452.423,906.092,306.051,1042.109,699.983c47.48,137.514,23.9,360.087-151.688,372.686-273.948,19.654-214.151-353.57-8.083-313.533" transform="translate(748.197 351.157)" fill="none" stroke="#8eb7cc" stroke-miterlimit="10" stroke-width="0.147"/>
        <path id="Path_2144" data-name="Path 2144" d="M73.744,0c-380.583,452.423,829.064,302.183,965.08,696.115,47.48,137.512,23.9,360.087-151.688,372.685-273.948,19.656-214.151-353.57-8.084-313.533" transform="translate(735.153 348.512)" fill="none" stroke="#8eb7cc" stroke-miterlimit="10" stroke-width="0.148"/>
        <path id="Path_2145" data-name="Path 2145" d="M73.916,0c-380.583,452.423,825.61,298.315,961.626,692.247,47.48,137.512,23.9,360.087-151.688,372.685C609.907,1084.587,669.7,711.361,875.772,751.4" transform="translate(721.809 346.801)" fill="none" stroke="#8eb7cc" stroke-miterlimit="10" stroke-width="0.15"/>
        <path id="Path_2146" data-name="Path 2146" d="M74.089,0C-306.494,452.423,896.246,294.445,1032.26,688.377c47.48,137.512,23.9,360.087-151.688,372.686-273.948,19.654-214.151-353.57-8.084-313.533" transform="translate(708.168 345.99)" fill="none" stroke="#8eb7cc" stroke-miterlimit="10" stroke-width="0.151"/>
        <path id="Path_2147" data-name="Path 2147" d="M74.263,0c-380.585,452.428,818.7,290.583,954.709,684.514,47.48,137.512,23.9,360.087-151.688,372.686-273.948,19.654-214.151-353.57-8.084-313.533" transform="translate(694.229 346.06)" fill="none" stroke="#8eb7cc" stroke-miterlimit="10" stroke-width="0.153"/>
        <path id="Path_2148" data-name="Path 2148" d="M74.437,0C-306.146,452.423,889.685,286.708,1025.7,680.641c47.48,137.512,23.9,360.087-151.688,372.684-273.948,19.656-214.151-353.57-8.083-313.533" transform="translate(679.994 346.995)" fill="none" stroke="#8eb7cc" stroke-miterlimit="10" stroke-width="0.154"/>
        <path id="Path_2149" data-name="Path 2149" d="M74.613,0C-305.97,452.423,886.405,282.839,1022.421,676.771c47.48,137.512,23.9,360.087-151.688,372.686-273.948,19.654-214.151-353.57-8.083-313.533" transform="translate(665.463 348.759)" fill="none" stroke="#8eb7cc" stroke-miterlimit="10" stroke-width="0.155"/>
        <path id="Path_2150" data-name="Path 2150" d="M74.789,0c-380.583,452.423,808.339,278.972,944.355,672.9,47.48,137.514,23.9,360.087-151.688,372.686-273.948,19.654-214.151-353.57-8.084-313.533" transform="translate(650.638 351.352)" fill="none" stroke="#8eb7cc" stroke-miterlimit="10" stroke-width="0.156"/>
        <path id="Path_2151" data-name="Path 2151" d="M74.965,0c-380.583,452.423,804.885,275.1,940.9,669.035,47.48,137.512,23.9,360.087-151.688,372.685-273.948,19.654-214.151-353.57-8.083-313.533" transform="translate(635.52 354.703)" fill="none" stroke="#8eb7cc" stroke-miterlimit="10" stroke-width="0.158"/>
        <path id="Path_2152" data-name="Path 2152" d="M75.143,0C-305.44,452.423,876.573,271.234,1012.59,665.165c47.48,137.512,23.9,360.087-151.688,372.686-273.948,19.654-214.151-353.57-8.083-313.533" transform="translate(620.11 358.83)" fill="none" stroke="#8eb7cc" stroke-miterlimit="10" stroke-width="0.159"/>
        <path id="Path_2153" data-name="Path 2153" d="M75.322,0C-305.261,452.423,873.3,267.366,1009.315,661.3c47.48,137.512,23.9,360.087-151.688,372.685-273.948,19.654-214.151-353.57-8.084-313.533" transform="translate(604.41 363.698)" fill="none" stroke="#8eb7cc" stroke-miterlimit="10" stroke-width="0.161"/>
        <path id="Path_2154" data-name="Path 2154" d="M75.5,0c-380.583,452.423,794.523,263.5,930.538,657.429,47.48,137.512,23.9,360.087-151.688,372.684C580.4,1049.768,640.2,676.543,846.268,716.58" transform="translate(588.42 369.254)" fill="none" stroke="#8eb7cc" stroke-miterlimit="10" stroke-width="0.162"/>
        <path id="Path_2155" data-name="Path 2155" d="M75.681,0C-304.9,452.423,866.749,259.628,1002.766,653.559c47.48,137.512,23.9,360.087-151.688,372.684C577.13,1045.9,636.926,672.674,842.994,712.71" transform="translate(572.141 375.516)" fill="none" stroke="#8eb7cc" stroke-miterlimit="10" stroke-width="0.163"/>
        <path id="Path_2156" data-name="Path 2156" d="M75.863,0c-380.585,452.426,787.612,255.763,923.62,649.695,47.48,137.512,23.9,360.087-151.688,372.684-273.948,19.656-214.151-353.57-8.084-313.533" transform="translate(555.574 382.43)" fill="none" stroke="#8eb7cc" stroke-miterlimit="10" stroke-width="0.164"/>
        <path id="Path_2157" data-name="Path 2157" d="M76.045,0C-304.538,452.423,860.2,251.89,996.22,645.823c47.48,137.512,23.9,360.087-151.688,372.685-273.948,19.656-214.151-353.57-8.083-313.533" transform="translate(538.719 389.996)" fill="none" stroke="#8eb7cc" stroke-miterlimit="10" stroke-width="0.166"/>
        <path id="Path_2158" data-name="Path 2158" d="M76.227,0C-304.355,452.418,856.933,248.017,992.944,641.948c47.48,137.512,23.9,360.087-151.688,372.686C567.308,1034.289,627.1,661.064,833.172,701.1" transform="translate(521.581 398.163)" fill="none" stroke="#8eb7cc" stroke-miterlimit="10" stroke-width="0.167"/>
        <path id="Path_2159" data-name="Path 2159" d="M76.411,0c-380.583,452.423,777.25,244.154,913.266,638.085,47.48,137.512,23.9,360.087-151.688,372.684-273.948,19.656-214.151-353.57-8.083-313.533" transform="translate(504.156 406.911)" fill="none" stroke="#8eb7cc" stroke-miterlimit="10" stroke-width="0.169"/>
        <path id="Path_2160" data-name="Path 2160" d="M76.6,0c-380.583,452.423,773.8,240.284,909.813,634.216,47.48,137.512,23.9,360.087-151.688,372.684-273.948,19.656-214.151-353.57-8.084-313.533" transform="translate(486.449 416.242)" fill="none" stroke="#8eb7cc" stroke-miterlimit="10" stroke-width="0.17"/>
        <path id="Path_2161" data-name="Path 2161" d="M76.781,0C-303.8,452.423,847.124,236.416,983.139,630.348c47.48,137.514,23.9,360.087-151.688,372.686C557.5,1022.681,617.3,649.455,823.369,689.492" transform="translate(468.458 426.102)" fill="none" stroke="#8eb7cc" stroke-miterlimit="10" stroke-width="0.171"/>
        <path id="Path_2162" data-name="Path 2162" d="M76.968,0c-380.583,452.423,766.888,232.548,902.9,626.479,47.48,137.512,23.9,360.087-151.688,372.686C554.236,1018.82,614.032,645.6,820.1,685.632" transform="translate(450.187 436.473)" fill="none" stroke="#8eb7cc" stroke-miterlimit="10" stroke-width="0.172"/>
        <path id="Path_2163" data-name="Path 2163" d="M77.155,0c-380.583,452.423,763.434,228.678,899.45,622.61,47.48,137.512,23.9,360.087-151.688,372.686-273.948,19.654-214.151-353.57-8.083-313.533" transform="translate(431.635 447.333)" fill="none" stroke="#8eb7cc" stroke-miterlimit="10" stroke-width="0.174"/>
        <path id="Path_2164" data-name="Path 2164" d="M77.343,0c-380.583,452.423,759.981,224.81,896,618.741,47.48,137.514,23.9,360.087-151.688,372.686C547.7,1011.082,607.5,637.858,813.569,677.895" transform="translate(412.804 458.662)" fill="none" stroke="#8eb7cc" stroke-miterlimit="10" stroke-width="0.175"/>
        <path id="Path_2165" data-name="Path 2165" d="M77.532,0C-303.051,452.423,834.058,220.94,970.074,614.872c47.48,137.512,23.9,360.087-151.688,372.686-273.948,19.654-214.151-353.57-8.083-313.533" transform="translate(393.696 470.432)" fill="none" stroke="#8eb7cc" stroke-miterlimit="10" stroke-width="0.177"/>
        <path id="Path_2166" data-name="Path 2166" d="M77.722,0C-302.861,452.423,830.794,217.072,966.808,611c47.48,137.514,23.9,360.087-151.688,372.686-273.948,19.654-214.151-353.57-8.084-313.533" transform="translate(374.309 482.618)" fill="none" stroke="#8eb7cc" stroke-miterlimit="10" stroke-width="0.178"/>
        <path id="Path_2167" data-name="Path 2167" d="M77.913,0C-302.67,452.421,827.53,213.2,963.546,607.134c47.48,137.512,23.9,360.087-151.688,372.686-273.948,19.654-214.151-353.57-8.083-313.533" transform="translate(354.647 495.197)" fill="none" stroke="#8eb7cc" stroke-miterlimit="10" stroke-width="0.179"/>
        <path id="Path_2168" data-name="Path 2168" d="M78.1,0C-302.478,452.423,824.268,209.336,960.284,603.268c47.48,137.512,23.9,360.087-151.688,372.684-273.948,19.656-214.152-353.57-8.084-313.533" transform="translate(334.709 508.142)" fill="none" stroke="#8eb7cc" stroke-miterlimit="10" stroke-width="0.181"/>
        <path id="Path_2169" data-name="Path 2169" d="M78.3,0C-302.285,452.423,821.007,205.467,957.022,599.4c47.48,137.512,23.9,360.087-151.688,372.686-273.948,19.654-214.151-353.57-8.084-313.533" transform="translate(314.497 521.43)" fill="none" stroke="#8eb7cc" stroke-miterlimit="10" stroke-width="0.182"/>
        <path id="Path_2170" data-name="Path 2170" d="M78.492,0C-302.091,452.423,817.746,201.6,953.76,595.53c47.48,137.512,23.9,360.087-151.688,372.686-273.948,19.654-214.151-353.57-8.084-313.533" transform="translate(294.348 534.737)" fill="none" stroke="#8eb7cc" stroke-miterlimit="10" stroke-width="0.183"/>
        <path id="Path_2171" data-name="Path 2171" d="M78.686,0C-301.9,452.423,814.485,197.731,950.5,591.662c47.48,137.512,23.9,360.087-151.688,372.686C524.865,984,584.662,610.778,790.73,650.815" transform="translate(276.303 545.748)" fill="none" stroke="#8eb7cc" stroke-miterlimit="10" stroke-width="0.185"/>
        <path id="Path_2172" data-name="Path 2172" d="M78.882,0C-301.7,452.423,811.228,193.861,947.244,587.792c47.48,137.512,23.9,360.087-151.688,372.685C521.608,980.132,581.4,606.908,787.471,646.945" transform="translate(260.474 554.087)" fill="none" stroke="#8eb7cc" stroke-miterlimit="10" stroke-width="0.186"/>
        <path id="Path_2173" data-name="Path 2173" d="M79.079,0C-301.5,452.421,807.97,189.991,943.986,583.922c47.48,137.512,23.9,360.087-151.688,372.686-273.948,19.654-214.151-353.57-8.084-313.533" transform="translate(246.637 559.866)" fill="none" stroke="#8eb7cc" stroke-miterlimit="10" stroke-width="0.187"/>
        <path id="Path_2174" data-name="Path 2174" d="M79.276,0C-301.307,452.423,804.714,186.123,940.729,580.056c47.48,137.512,23.9,360.087-151.688,372.684C515.093,972.4,574.889,599.17,780.957,639.207" transform="translate(234.569 563.19)" fill="none" stroke="#8eb7cc" stroke-miterlimit="10" stroke-width="0.189"/>
        <path id="Path_2175" data-name="Path 2175" d="M79.475,0c-380.583,452.423,721.983,182.255,858,576.186,47.48,137.512,23.9,360.087-151.688,372.684C511.836,968.527,571.633,595.3,777.7,635.337" transform="translate(224.043 564.175)" fill="none" stroke="#8eb7cc" stroke-miterlimit="10" stroke-width="0.19"/>
        <path id="Path_2176" data-name="Path 2176" d="M79.674,0C-300.909,452.423,798.2,178.387,934.218,572.318,981.7,709.83,958.116,932.406,782.53,945c-273.948,19.654-214.151-353.57-8.084-313.533" transform="translate(214.836 562.928)" fill="none" stroke="#8eb7cc" stroke-miterlimit="10" stroke-width="0.191"/>
        <path id="Path_2177" data-name="Path 2177" d="M79.875,0C-300.709,452.423,794.949,174.519,930.964,568.45c47.48,137.514,23.9,360.087-151.688,372.686-273.948,19.654-214.151-353.57-8.084-313.533" transform="translate(206.724 559.561)" fill="none" stroke="#8eb7cc" stroke-miterlimit="10" stroke-width="0.193"/>
        <path id="Path_2178" data-name="Path 2178" d="M80.076,0C-300.506,452.423,791.7,170.649,927.713,564.58c47.48,137.512,23.9,360.087-151.688,372.684-273.948,19.656-214.151-353.57-8.083-313.533" transform="translate(199.482 554.185)" fill="none" stroke="#8eb7cc" stroke-miterlimit="10" stroke-width="0.194"/>
        <path id="Path_2179" data-name="Path 2179" d="M80.279,0C-300.3,452.423,788.446,166.781,924.46,560.712,971.94,698.224,948.358,920.8,772.772,933.4c-273.948,19.654-214.151-353.57-8.083-313.533" transform="translate(192.886 546.907)" fill="none" stroke="#8eb7cc" stroke-miterlimit="10" stroke-width="0.195"/>
        <path id="Path_2180" data-name="Path 2180" d="M80.483,0C-300.1,452.423,785.194,162.911,921.21,556.844c47.48,137.512,23.9,360.087-151.688,372.685C495.574,949.183,555.371,575.959,761.439,616" transform="translate(186.711 537.839)" fill="none" stroke="#8eb7cc" stroke-miterlimit="10" stroke-width="0.197"/>
        <path id="Path_2181" data-name="Path 2181" d="M80.687,0C-299.9,452.423,781.945,159.043,917.96,552.974c47.48,137.514,23.9,360.087-151.688,372.686-273.948,19.654-214.151-353.57-8.084-313.533" transform="translate(180.736 527.094)" fill="none" stroke="#8eb7cc" stroke-miterlimit="10" stroke-width="0.198"/>
        <path id="Path_2182" data-name="Path 2182" d="M80.893,0C-299.69,452.423,778.7,155.175,914.712,549.106c47.48,137.514,23.9,360.087-151.688,372.686-273.948,19.654-214.151-353.57-8.084-313.533" transform="translate(174.732 514.779)" fill="none" stroke="#8eb7cc" stroke-miterlimit="10" stroke-width="0.199"/>
        <path id="Path_2183" data-name="Path 2183" d="M81.1,0c-380.585,452.421,694.347,151.3,830.364,545.236,47.48,137.512,23.9,360.087-151.688,372.685-273.948,19.654-214.151-353.57-8.084-313.533" transform="translate(168.479 501.007)" fill="none" stroke="#8eb7cc" stroke-miterlimit="10" stroke-width="0.201"/>
        <path id="Path_2184" data-name="Path 2184" d="M81.307,0C-299.276,452.423,772.2,147.437,908.218,541.369c47.48,137.512,23.9,360.087-151.688,372.684-273.948,19.656-214.152-353.568-8.084-313.533" transform="translate(161.749 485.886)" fill="none" stroke="#8eb7cc" stroke-miterlimit="10" stroke-width="0.202"/>
        <path id="Path_2185" data-name="Path 2185" d="M81.516,0c-380.583,452.423,687.44,143.567,823.457,537.5,47.48,137.512,23.9,360.087-151.688,372.684-273.948,19.654-214.151-353.57-8.083-313.533" transform="translate(154.319 469.529)" fill="none" stroke="#8eb7cc" stroke-miterlimit="10" stroke-width="0.203"/>
        <path id="Path_2186" data-name="Path 2186" d="M81.726,0c-380.583,452.423,683.987,139.7,820,533.631,47.48,137.512,23.9,360.087-151.688,372.684-273.948,19.654-214.151-353.57-8.084-313.533" transform="translate(145.966 452.042)" fill="none" stroke="#8eb7cc" stroke-miterlimit="10" stroke-width="0.205"/>
        <path id="Path_2187" data-name="Path 2187" d="M81.937,0C-298.646,452.423,762.468,135.831,898.485,529.763c47.48,137.514,23.9,360.087-151.688,372.686-273.948,19.654-214.151-353.57-8.083-313.533" transform="translate(136.465 433.545)" fill="none" stroke="#8eb7cc" stroke-miterlimit="10" stroke-width="0.206"/>
        <path id="Path_2188" data-name="Path 2188" d="M82.149,0C-298.434,452.428,759.227,131.968,895.241,525.9c47.48,137.514,23.9,360.087-151.688,372.686C469.605,918.24,529.4,545.016,735.47,585.053" transform="translate(125.591 414.126)" fill="none" stroke="#8eb7cc" stroke-miterlimit="10" stroke-width="0.207"/>
        <path id="Path_2189" data-name="Path 2189" d="M82.362,0C-298.221,452.419,755.984,128.09,892,522.021c47.48,137.512,23.9,360.087-151.688,372.684-273.948,19.656-214.151-353.57-8.084-313.533" transform="translate(113.119 393.93)" fill="none" stroke="#8eb7cc" stroke-miterlimit="10" stroke-width="0.209"/>
        <path id="Path_2190" data-name="Path 2190" d="M82.576,0C-298.007,452.423,752.745,124.225,888.761,518.157c47.48,137.512,23.9,360.087-151.688,372.685C463.126,910.5,522.922,537.271,728.99,577.308" transform="translate(98.826 373.029)" fill="none" stroke="#8eb7cc" stroke-miterlimit="10" stroke-width="0.21"/>
        <path id="Path_2191" data-name="Path 2191" d="M82.791,0c-380.583,452.428,666.714,120.362,802.73,514.294C933,651.808,909.419,874.381,733.834,886.98c-273.948,19.654-214.151-353.57-8.084-313.533" transform="translate(82.49 351.563)" fill="none" stroke="#8eb7cc" stroke-miterlimit="10" stroke-width="0.211"/>
        <path id="Path_2192" data-name="Path 2192" d="M83.008,0c-380.583,452.421,663.26,116.487,799.277,510.419,47.48,137.514,23.9,360.087-151.688,372.686-273.948,19.654-214.151-353.57-8.084-313.533" transform="translate(63.882 329.639)" fill="none" stroke="#8eb7cc" stroke-miterlimit="10" stroke-width="0.213"/>
        <path id="Path_2193" data-name="Path 2193" d="M83.225,0C-297.358,452.423,743.032,112.62,879.048,506.551c47.48,137.512,23.9,360.087-151.688,372.685C453.412,898.89,513.209,525.665,719.277,565.7" transform="translate(42.781 307.344)" fill="none" stroke="#8eb7cc" stroke-miterlimit="10" stroke-width="0.214"/>
        <path id="Path_2194" data-name="Path 2194" d="M83.444,0C-297.139,452.428,739.8,108.757,875.812,502.688c47.48,137.512,23.9,360.087-151.688,372.685C450.176,895.027,509.972,521.8,716.04,561.839" transform="translate(22.303 286.549)" fill="none" stroke="#8eb7cc" stroke-miterlimit="10" stroke-width="0.215"/>
        <path id="Path_2195" data-name="Path 2195" d="M83.664,0c-380.583,452.423,652.9,104.881,788.914,498.813C920.058,636.325,896.476,858.9,720.89,871.5c-273.948,19.654-214.151-353.57-8.084-313.533" transform="translate(8.894 267.853)" fill="none" stroke="#8eb7cc" stroke-miterlimit="10" stroke-width="0.217"/>
        <path id="Path_2196" data-name="Path 2196" d="M83.885,0C-296.7,452.423,733.329,101.014,869.344,494.945c47.48,137.512,23.9,360.087-151.688,372.685C443.708,887.284,503.5,514.059,709.572,554.1" transform="translate(1.686 250.32)" fill="none" stroke="#8eb7cc" stroke-miterlimit="10" stroke-width="0.218"/>
        <path id="Path_2197" data-name="Path 2197" d="M84.107,0C-296.476,452.416,730.1,97.133,866.112,491.07c47.48,137.512,23.9,360.088-151.688,372.686-273.948,19.654-214.152-353.57-8.084-313.533" transform="translate(0 233.846)" fill="none" stroke="#8eb7cc" stroke-miterlimit="10" stroke-width="0.219"/>
        <path id="Path_2198" data-name="Path 2198" d="M84.33,0C-296.253,452.423,726.865,93.276,862.882,487.207c47.48,137.512,23.9,360.087-151.688,372.686-273.948,19.654-214.152-353.57-8.084-313.533" transform="translate(3.153 218.325)" fill="none" stroke="#8eb7cc" stroke-miterlimit="10" stroke-width="0.221"/>
        <path id="Path_2199" data-name="Path 2199" d="M84.555,0c-380.583,452.423,639.08,89.408,775.1,483.339,47.48,137.512,23.9,360.087-151.688,372.686-273.948,19.654-214.151-353.57-8.084-313.533" transform="translate(10.467 203.65)" fill="none" stroke="#8eb7cc" stroke-miterlimit="10" stroke-width="0.222"/>
        <path id="Path_2200" data-name="Path 2200" d="M84.78,0C-295.8,452.428,720.407,85.545,856.423,479.475c47.48,137.512,23.9,360.087-151.688,372.684-273.948,19.654-214.151-353.57-8.084-313.533" transform="translate(21.258 189.734)" fill="none" stroke="#8eb7cc" stroke-miterlimit="10" stroke-width="0.223"/>
        <path id="Path_2201" data-name="Path 2201" d="M85.007,0C-295.576,452.423,717.18,81.67,853.194,475.6c47.48,137.512,23.9,360.087-151.688,372.686-273.948,19.654-214.152-353.57-8.084-313.533" transform="translate(34.849 176.47)" fill="none" stroke="#8eb7cc" stroke-miterlimit="10" stroke-width="0.225"/>
        <path id="Path_2202" data-name="Path 2202" d="M85.235,0C-295.348,452.423,713.953,77.8,849.969,471.732c47.48,137.514,23.9,360.087-151.688,372.686C424.333,864.072,484.13,490.848,690.2,530.885" transform="translate(50.555 163.735)" fill="none" stroke="#8eb7cc" stroke-miterlimit="10" stroke-width="0.226"/>
        <path id="Path_2203" data-name="Path 2203" d="M85.464,0C-295.119,452.423,710.728,73.932,846.745,467.863c47.48,137.512,23.9,360.087-151.688,372.685-273.948,19.654-214.151-353.57-8.084-313.533" transform="translate(67.699 151.441)" fill="none" stroke="#8eb7cc" stroke-miterlimit="10" stroke-width="0.227"/>
        <path id="Path_2204" data-name="Path 2204" d="M85.695,0C-294.888,452.416,707.505,70.059,843.52,463.989,891,601.5,867.418,824.076,691.832,836.673,417.884,856.327,477.681,483.1,683.748,523.14" transform="translate(85.597 139.482)" fill="none" stroke="#8eb7cc" stroke-miterlimit="10" stroke-width="0.229"/>
        <path id="Path_2205" data-name="Path 2205" d="M85.926,0C-294.657,452.423,704.282,66.194,840.3,460.126c47.48,137.512,23.9,360.087-151.688,372.684-273.948,19.654-214.151-353.57-8.084-313.533" transform="translate(103.572 127.735)" fill="none" stroke="#8eb7cc" stroke-miterlimit="10" stroke-width="0.23"/>
        <path id="Path_2206" data-name="Path 2206" d="M86.159,0c-380.583,452.423,614.9,62.326,750.916,456.257,47.48,137.512,23.9,360.087-151.688,372.685C411.44,848.6,471.236,475.372,677.3,515.409" transform="translate(120.94 116.129)" fill="none" stroke="#8eb7cc" stroke-miterlimit="10" stroke-width="0.231"/>
        <path id="Path_2207" data-name="Path 2207" d="M86.393,0C-294.189,452.418,697.84,58.453,833.856,452.384c47.48,137.512,23.9,360.087-151.688,372.686C408.22,844.725,468.017,471.5,674.085,511.537" transform="translate(137.021 104.541)" fill="none" stroke="#8eb7cc" stroke-miterlimit="10" stroke-width="0.233"/>
        <path id="Path_2208" data-name="Path 2208" d="M86.629,0C-293.954,452.423,694.622,54.59,830.636,448.52c47.48,137.514,23.9,360.087-151.688,372.686C405,840.86,464.8,467.636,670.865,507.673" transform="translate(151.136 92.865)" fill="none" stroke="#8eb7cc" stroke-miterlimit="10" stroke-width="0.234"/>
        <path id="Path_2209" data-name="Path 2209" d="M86.866,0C-293.717,452.423,691.4,50.72,827.42,444.652c47.48,137.512,23.9,360.087-151.688,372.684C401.784,836.99,461.58,463.766,667.648,503.8" transform="translate(162.602 80.995)" fill="none" stroke="#8eb7cc" stroke-miterlimit="10" stroke-width="0.235"/>
        <path id="Path_2210" data-name="Path 2210" d="M87.1,0C-293.479,452.423,688.188,46.852,824.2,440.784,871.684,578.3,848.1,800.871,672.516,813.47c-273.948,19.654-214.151-353.57-8.084-313.533" transform="translate(170.739 68.842)" fill="none" stroke="#8eb7cc" stroke-miterlimit="10" stroke-width="0.237"/>
        <path id="Path_2211" data-name="Path 2211" d="M87.343,0C-293.24,452.423,684.972,42.983,820.988,436.916,868.468,574.428,844.886,797,669.3,809.6c-273.948,19.654-214.151-353.57-8.084-313.533" transform="translate(174.867 56.284)" fill="none" stroke="#8eb7cc" stroke-miterlimit="10" stroke-width="0.238"/>
        <path id="Path_2212" data-name="Path 2212" d="M87.583,0C-293,452.423,681.759,39.115,817.775,433.046c47.48,137.512,23.9,360.087-151.688,372.686C392.139,825.386,451.936,452.162,658,492.2" transform="translate(174.303 43.214)" fill="none" stroke="#8eb7cc" stroke-miterlimit="10" stroke-width="0.239"/>
        <path id="Path_2213" data-name="Path 2213" d="M87.825,0C-292.758,452.423,678.547,35.246,814.562,429.178c47.48,137.514,23.9,360.087-151.688,372.686-273.948,19.654-214.152-353.57-8.084-313.533" transform="translate(168.368 29.562)" fill="none" stroke="#8eb7cc" stroke-miterlimit="10" stroke-width="0.241"/>
        <path id="Path_2214" data-name="Path 2214" d="M88.069,0C-292.514,452.423,675.335,31.376,811.351,425.308c47.48,137.512,23.9,360.087-151.688,372.686-273.948,19.654-214.152-353.57-8.084-313.533" transform="translate(156.383 15.187)" fill="none" stroke="#8eb7cc" stroke-miterlimit="10" stroke-width="0.242"/>
        <path id="Path_2215" data-name="Path 2215" d="M88.313,0C-292.27,452.423,672.126,27.508,808.142,421.44c47.48,137.514,23.9,360.087-151.688,372.686-273.948,19.654-214.151-353.57-8.084-313.533" transform="translate(137.662 0)" fill="none" stroke="#8eb7cc" stroke-miterlimit="10" stroke-width="0.243"/>
      </g>
    </g>
  </g>
</svg>
