<svg xmlns="http://www.w3.org/2000/svg" width="20.271" height="18.034" viewBox="0 0 20.271 18.034">
  <path id="heart" d="M18.663,1.765A5.451,5.451,0,0,0,14.609,0a5.1,5.1,0,0,0-3.185,1.1,6.516,6.516,0,0,0-1.288,1.345A6.513,6.513,0,0,0,8.848,1.1,5.1,5.1,0,0,0,5.663,0,5.451,5.451,0,0,0,1.608,1.765,6.336,6.336,0,0,0,0,6.092a7.545,7.545,0,0,0,2.01,4.939,42.871,42.871,0,0,0,5.033,4.724c.7.594,1.488,1.268,2.309,1.986a1.19,1.19,0,0,0,1.567,0c.821-.718,1.612-1.392,2.309-1.986a42.847,42.847,0,0,0,5.032-4.723,7.544,7.544,0,0,0,2.01-4.939,6.336,6.336,0,0,0-1.608-4.327Zm0,0" transform="translate(0)" fill="#fff"/>
</svg>
